<svg width="17" height="20" fill="none" xmlns="http://www.w3.org/2000/svg"><path d="M4.033 12.867c0-.332-.23-.53-.638-.53-.166 0-.278.016-.337.032v1.066c.07.015.155.02.273.02.434 0 .702-.218.702-.588zm2.517-.518c-.182 0-.3.015-.37.032v2.36c.07.016.183.016.284.016.74.005 1.221-.401 1.221-1.263.005-.75-.434-1.145-1.135-1.145z" fill="#0756BB"/><path d="M11.227 0H3.194a2.132 2.132 0 00-2.128 2.129V10H.858a.858.858 0 00-.858.858v5.202c0 .474.384.858.858.858h.208v.953A2.13 2.13 0 003.194 20h10.96a2.13 2.13 0 002.129-2.129V5.038L11.227 0zM2.25 11.797a6.721 6.721 0 011.103-.075c.503 0 .861.096 1.102.289.23.182.386.482.386.835s-.118.653-.332.856c-.278.262-.69.38-1.172.38a2.02 2.02 0 01-.279-.016v1.29H2.25v-3.56zm11.905 6.9H3.195a.826.826 0 01-.825-.826v-.953h10.217a.858.858 0 00.858-.858v-5.202a.858.858 0 00-.858-.858H2.37V2.129c0-.454.37-.824.824-.824l7.545-.008v2.789c0 .815.661 1.476 1.477 1.476l2.732-.008.03 12.317a.825.825 0 01-.823.825zM5.362 15.34v-3.543c.3-.048.69-.075 1.102-.075.686 0 1.13.123 1.478.385.375.279.61.723.61 1.36 0 .69-.251 1.167-.6 1.461-.38.316-.958.466-1.664.466-.423 0-.723-.027-.926-.054zm5.842-2.098v.664H9.908v1.45H9.09V11.75h2.205v.669H9.909v.824h1.296z" fill="#0756BB"/></svg>