<svg width="20" height="20" fill="none" xmlns="http://www.w3.org/2000/svg"><path d="M16.761 11.922c-.434-.453-.958-.694-1.514-.694-.551 0-1.08.237-1.532.69l-1.416 1.41c-.117-.062-.233-.12-.345-.178a5.685 5.685 0 01-.444-.238c-1.326-.842-2.531-1.94-3.687-3.36-.56-.708-.936-1.304-1.21-1.909.368-.336.708-.685 1.04-1.021.125-.126.25-.256.376-.381.941-.94.941-2.16 0-3.1L6.806 1.918a18.687 18.687 0 01-.417-.426 21.154 21.154 0 00-.842-.833C5.113.229 4.593 0 4.047 0 3.5 0 2.97.228 2.522.659l-.01.009-1.52 1.536a3.278 3.278 0 00-.973 2.084c-.107 1.308.278 2.527.574 3.324.726 1.958 1.81 3.772 3.427 5.717 1.963 2.343 4.324 4.193 7.02 5.497 1.031.488 2.407 1.066 3.944 1.165.094.005.192.009.282.009 1.035 0 1.904-.372 2.585-1.111.004-.01.013-.014.018-.023.233-.282.502-.537.784-.81.193-.184.39-.377.582-.578.444-.462.677-1 .677-1.55 0-.556-.238-1.09-.69-1.537l-2.46-2.469zm1.604 4.718c-.004 0-.004.004 0 0-.174.188-.354.358-.546.546-.292.278-.587.57-.865.896-.453.484-.986.713-1.685.713-.067 0-.139 0-.206-.005-1.33-.085-2.567-.604-3.494-1.048a19.901 19.901 0 01-6.613-5.18c-1.528-1.84-2.55-3.543-3.226-5.371-.417-1.116-.57-1.985-.502-2.805.045-.524.247-.959.618-1.33l1.528-1.528c.22-.206.453-.318.681-.318.282 0 .51.17.654.313l.014.014c.273.255.533.52.806.802l.426.434 1.223 1.223c.475.475.475.914 0 1.39-.13.13-.255.26-.385.385-.377.385-.735.743-1.125 1.093-.009.009-.018.013-.022.022-.386.386-.314.762-.233 1.017l.013.04c.318.771.766 1.497 1.447 2.362l.005.004c1.236 1.523 2.54 2.71 3.978 3.62.184.117.372.21.551.3.162.081.314.157.444.238.018.009.036.022.054.031a.971.971 0 00.443.112c.372 0 .605-.233.681-.309l1.532-1.532c.153-.152.395-.336.677-.336.278 0 .506.175.645.327l.01.009 2.468 2.469c.461.456.461.927.004 1.402z" fill="#0756BB"/></svg>