<svg width="41" height="41" fill="none" xmlns="http://www.w3.org/2000/svg"><path d="M23.144 23.59a4.98 4.98 0 00-2.743.822 4.894 4.894 0 00-1.82 2.19 4.827 4.827 0 00-.28 2.82c.19.947.66 1.816 1.351 2.499a4.957 4.957 0 002.529 1.336 4.994 4.994 0 002.854-.278 4.926 4.926 0 002.216-1.798 4.84 4.84 0 00-.614-6.162 4.97 4.97 0 00-3.493-1.43zm2.798 5.574a.707.707 0 01-.467-.218.69.69 0 01-.19-.476c0-.554-.222-1.086-.619-1.478a2.128 2.128 0 00-1.495-.612.712.712 0 01-.457-.226.696.696 0 010-.943.712.712 0 01.457-.226 3.56 3.56 0 012.492 1.022 3.47 3.47 0 011.035 2.463.687.687 0 01-.224.51.704.704 0 01-.532.184z" fill="#0756BB" fill-opacity=".45"/><path d="M33.016 19.41H13.28c-.559 0-1.095.218-1.49.607a2.08 2.08 0 00-.625 1.47v18.126a.689.689 0 00.436.64.71.71 0 00.766-.153l2.627-2.596h18.022a2.13 2.13 0 001.49-.605c.397-.387.624-.914.63-1.465V21.487a2.084 2.084 0 00-.627-1.47 2.134 2.134 0 00-1.493-.607zm-9.852 15.323a6.399 6.399 0 01-3.525-1.057 6.286 6.286 0 01-2.337-2.815 6.2 6.2 0 01-.36-3.623 6.247 6.247 0 011.738-3.21 6.369 6.369 0 013.25-1.714 6.415 6.415 0 013.666.359 6.328 6.328 0 012.846 2.312 6.217 6.217 0 01.58 5.887 6.265 6.265 0 01-1.381 2.034 6.349 6.349 0 01-2.064 1.356 6.41 6.41 0 01-2.433.47h.02z" fill="#0756BB" fill-opacity=".45"/><path d="M37.948 13.841H18.245a2.137 2.137 0 00-1.52.598 2.088 2.088 0 00-.634 1.492v2.09h16.925a3.55 3.55 0 012.482 1.016c.66.65 1.033 1.53 1.038 2.45V32.24l2.325 2.29a.705.705 0 001.202-.492V15.93c0-.554-.223-1.086-.62-1.478a2.128 2.128 0 00-1.495-.612z" fill="#0756BB" fill-opacity=".45"/><path d="M8.13 26.458a3.237 3.237 0 00.98-1.656 3.209 3.209 0 00-.139-1.912 3.252 3.252 0 00-1.206-1.502 3.311 3.311 0 00-3.708 0c-.546.37-.966.893-1.206 1.502a3.209 3.209 0 00-.138 1.912c.15.637.49 1.214.978 1.656a5.898 5.898 0 00-2.682 2.15A5.792 5.792 0 000 31.87c0 .172.07.337.192.459a.66.66 0 00.465.19h10.508a.66.66 0 00.464-.19.646.646 0 00.193-.46 5.792 5.792 0 00-1.01-3.262 5.898 5.898 0 00-2.681-2.15zm-4.19-2.375c0-.385.116-.762.333-1.082.216-.32.524-.57.884-.717a1.992 1.992 0 012.147.422 1.926 1.926 0 01.427 2.122c-.149.356-.401.66-.726.874a1.987 1.987 0 01-2.487-.243 1.936 1.936 0 01-.577-1.376zm-2.58 7.139a4.528 4.528 0 011.538-2.79 4.63 4.63 0 013.013-1.112 4.63 4.63 0 013.013 1.111 4.528 4.528 0 011.538 2.79H1.36zm27.787-4.764a3.236 3.236 0 00.979-1.656 3.209 3.209 0 00-.138-1.912 3.252 3.252 0 00-1.207-1.502 3.311 3.311 0 00-3.707 0 3.26 3.26 0 00-1.207 1.502 3.209 3.209 0 00-.138 1.912c.15.637.491 1.214.979 1.656a5.897 5.897 0 00-2.682 2.15 5.792 5.792 0 00-1.01 3.263c0 .172.07.337.193.459a.66.66 0 00.464.19h10.509a.66.66 0 00.464-.19.646.646 0 00.192-.46 5.792 5.792 0 00-1.009-3.262 5.898 5.898 0 00-2.682-2.15zm-4.19-2.375c0-.385.116-.762.332-1.082.217-.32.524-.57.884-.717a1.992 1.992 0 012.148.422 1.926 1.926 0 01.427 2.122c-.15.356-.402.66-.726.874a1.987 1.987 0 01-2.488-.243 1.936 1.936 0 01-.577-1.376zm-2.58 7.139a4.528 4.528 0 011.538-2.79 4.63 4.63 0 013.012-1.112 4.63 4.63 0 013.013 1.111 4.528 4.528 0 011.539 2.79h-9.103zM8.13 5.69a3.237 3.237 0 00.98-1.656 3.21 3.21 0 00-.14-1.914A3.252 3.252 0 007.765.62a3.311 3.311 0 00-3.708 0 3.252 3.252 0 00-1.206 1.5 3.21 3.21 0 00-.138 1.913c.15.637.49 1.214.978 1.656a5.897 5.897 0 00-2.682 2.149A5.792 5.792 0 000 11.102c0 .172.07.338.192.46a.66.66 0 00.465.19h10.508a.661.661 0 00.464-.19.646.646 0 00.193-.46 5.792 5.792 0 00-1.01-3.263 5.898 5.898 0 00-2.681-2.15zM3.94 3.314c0-.385.116-.761.333-1.082.216-.32.524-.57.884-.717a1.992 1.992 0 012.147.422 1.926 1.926 0 01.427 2.122c-.149.356-.401.66-.726.874a1.987 1.987 0 01-2.487-.242 1.935 1.935 0 01-.577-1.377zm-2.58 7.14a4.528 4.528 0 011.538-2.791A4.63 4.63 0 015.911 6.55a4.63 4.63 0 013.013 1.112 4.528 4.528 0 011.538 2.79H1.36zm20.313 1.297h10.509a.661.661 0 00.464-.19.646.646 0 00.192-.459A5.792 5.792 0 0031.83 7.84a5.898 5.898 0 00-2.682-2.15 3.237 3.237 0 00.979-1.655 3.209 3.209 0 00-.138-1.913A3.252 3.252 0 0028.78.62a3.311 3.311 0 00-3.707 0 3.251 3.251 0 00-1.207 1.501 3.209 3.209 0 00-.138 1.913c.15.637.491 1.214.979 1.656a5.897 5.897 0 00-2.682 2.149 5.792 5.792 0 00-1.01 3.263c0 .172.07.338.193.46a.66.66 0 00.464.19zm3.284-8.437c0-.385.116-.761.332-1.082.217-.32.524-.57.884-.717a1.992 1.992 0 012.148.422 1.926 1.926 0 01.427 2.122c-.15.356-.402.66-.726.874a1.987 1.987 0 01-2.488-.242 1.935 1.935 0 01-.577-1.377zm1.97 3.245a4.63 4.63 0 013.01 1.109 4.528 4.528 0 011.542 2.785h-9.103a4.528 4.528 0 011.541-2.785 4.63 4.63 0 013.01-1.109zm-7.881-1.298h-5.254a.66.66 0 00-.464.19.645.645 0 000 .918.66.66 0 00.464.19h5.254a.66.66 0 00.465-.19.645.645 0 000-.918.66.66 0 00-.465-.19zm0 20.769h-5.254a.66.66 0 00-.464.19.645.645 0 000 .918.66.66 0 00.464.19h5.254a.66.66 0 00.465-.19.645.645 0 000-.918.66.66 0 00-.465-.19zm7.224-12.332v5.192c0 .172.07.338.193.46a.66.66 0 00.929 0 .645.645 0 00.192-.46v-5.192a.645.645 0 00-.192-.459.66.66 0 00-.93 0 .645.645 0 00-.192.46zM6.567 18.89v-5.192a.645.645 0 00-.192-.459.66.66 0 00-.929 0 .645.645 0 00-.192.46v5.191c0 .172.07.338.192.46a.66.66 0 00.93 0 .645.645 0 00.191-.46z" fill="#2A2554"/></svg>