<svg width="41" height="40" fill="none" xmlns="http://www.w3.org/2000/svg"><path d="M35.909 18.669h-9.473l3.081-3.278a3.74 3.74 0 00.957-1.783 3.712 3.712 0 00-.115-2.015 3.755 3.755 0 00-1.155-1.665 3.82 3.82 0 00-1.86-.834 4.054 4.054 0 00-2.088.163 4.01 4.01 0 00-1.72 1.18l-6.737 7.89a2.201 2.201 0 00-.75 1.632v19.394c0 .171.068.335.19.456a.657.657 0 00.462.19h16.596a7.142 7.142 0 005.032-1.984 6.974 6.974 0 002.15-4.914V23.063a4.44 4.44 0 00-1.367-3.13 4.547 4.547 0 00-3.203-1.264zm-21.943 0h-2.403a3.642 3.642 0 00-2.586.964 3.556 3.556 0 00-1.142 2.487v14.427c.032.945.443 1.84 1.142 2.487a3.642 3.642 0 002.586.964h2.402c.174 0 .34-.068.462-.189a.641.641 0 00.191-.456V19.301a.641.641 0 00-.195-.448.657.657 0 00-.457-.184z" fill="#0756BB" fill-opacity=".45"/><path d="M23.694.19s-2.801 2.775-5.413 2.775c-2.611 0-5.38-2.748-5.412-2.774a.653.653 0 00-.715-.141.654.654 0 00-.212.14c-.033.027-2.801 2.775-5.413 2.775-2.611 0-5.38-2.748-5.412-2.774A.655.655 0 00.001.642V19.74a12.323 12.323 0 003.582 8.793 12.622 12.622 0 008.822 3.723 12.621 12.621 0 008.822-3.723 12.323 12.323 0 003.583-8.793V.642a.64.64 0 00-.405-.594.66.66 0 00-.711.143zm-.19 19.55a11.04 11.04 0 01-3.2 7.88 11.308 11.308 0 01-7.899 3.346 11.308 11.308 0 01-7.898-3.345 11.04 11.04 0 01-3.2-7.881V2.068c1.188.93 3.179 2.187 5.222 2.187 2.488 0 4.89-1.858 5.876-2.729.986.871 3.389 2.73 5.876 2.73 2.044 0 4.035-1.259 5.223-2.188V19.74z" fill="#2A2554"/><path d="M3.265 7.32v12.194a8.98 8.98 0 002.677 6.387 9.196 9.196 0 006.463 2.645 9.196 9.196 0 006.464-2.645 8.979 8.979 0 002.677-6.387V7.32a.641.641 0 00-.191-.456.657.657 0 00-.462-.19H3.918a.657.657 0 00-.462.19.641.641 0 00-.19.456zm1.306.645H20.24v11.549a7.696 7.696 0 01-2.295 5.474 7.883 7.883 0 01-5.54 2.268 7.882 7.882 0 01-5.54-2.268 7.696 7.696 0 01-2.294-5.474V7.965z" fill="#2A2554"/><path d="M11.367 21.585l6.757-6.678a.65.65 0 00.192-.458.642.642 0 00-.404-.598.661.661 0 00-.715.14l-6.293 6.226-3.265-3.258a.656.656 0 00-.714-.14.656.656 0 00-.355.35.641.641 0 00.142.706l3.735 3.71a.657.657 0 00.92 0z" fill="#2A2554"/></svg>