<svg width="40" height="40" fill="none" xmlns="http://www.w3.org/2000/svg"><path d="M39.65 20.271a.636.636 0 00-.225-.363.65.65 0 00-.407-.143h-2.177a13.162 13.162 0 00-1.062-2.533l1.538-1.52a.634.634 0 00.084-.797 16.057 16.057 0 00-4.75-4.696.651.651 0 00-.81.083l-1.533 1.52a13.56 13.56 0 00-2.564-1.047V8.624a.633.633 0 00-.145-.402.646.646 0 00-.367-.222 16.407 16.407 0 00-6.72 0 .646.646 0 00-.367.222.633.633 0 00-.144.402v2.151a13.53 13.53 0 00-2.564 1.05l-1.537-1.52a.648.648 0 00-.808-.084 16.056 16.056 0 00-4.752 4.696.632.632 0 00.085.799l1.537 1.518a13.19 13.19 0 00-1.058 2.531H8.726a.65.65 0 00-.406.143.636.636 0 00-.225.363 15.792 15.792 0 000 6.64c.03.143.11.271.225.363a.65.65 0 00.406.142h2.178c.264.88.62 1.728 1.061 2.534l-1.537 1.519a.635.635 0 00-.085.798 16.058 16.058 0 004.751 4.696.651.651 0 00.809-.083l1.537-1.52c.815.435 1.673.786 2.561 1.047v2.149c0 .146.05.288.144.401a.647.647 0 00.368.222c2.215.465 4.504.465 6.719 0a.647.647 0 00.367-.22.633.633 0 00.145-.4v-2.152a13.573 13.573 0 002.564-1.05l1.536 1.52a.648.648 0 00.809.084 16.057 16.057 0 004.751-4.696.632.632 0 00-.084-.799l-1.538-1.518a13.24 13.24 0 001.059-2.532h2.175a.65.65 0 00.406-.142.637.637 0 00.225-.363 15.79 15.79 0 000-6.64h.002zM23.871 30.604a7.158 7.158 0 01-3.943-1.181 7.032 7.032 0 01-2.614-3.148 6.937 6.937 0 01-.404-4.052 6.99 6.99 0 011.943-3.591 7.124 7.124 0 013.634-1.92 7.176 7.176 0 014.1.4 7.08 7.08 0 013.185 2.583 6.955 6.955 0 011.197 3.896 6.98 6.98 0 01-2.082 4.957 7.148 7.148 0 01-5.016 2.056z" fill="#0756BB" fill-opacity=".45"/><path d="M31.228.128l-9.291 6.885V.638a.632.632 0 00-.357-.57.652.652 0 00-.675.06l-9.291 6.885V.638a.632.632 0 00-.357-.57.652.652 0 00-.676.06L.258 7.778a.64.64 0 00-.258.51v21.679c0 .507.204.993.567 1.352.363.359.855.56 1.369.56h28.389c.513 0 1.005-.201 1.368-.56.363-.359.567-.845.567-1.352V.637a.632.632 0 00-.356-.57.652.652 0 00-.676.06zm-.258 29.839a.63.63 0 01-.19.45.65.65 0 01-.456.187H1.936a.65.65 0 01-.457-.186.634.634 0 01-.189-.451V8.607l9.033-6.694v6.376a.632.632 0 00.357.57.652.652 0 00.676-.06l9.29-6.886v6.376a.633.633 0 00.357.57.652.652 0 00.676-.06l9.29-6.886v28.054z" fill="#2A2554"/><path d="M5.162 12.114V26.78c0 .169.068.33.19.45a.65.65 0 00.455.187h20.647a.649.649 0 00.456-.186.634.634 0 00.189-.451V12.114a.634.634 0 00-.189-.45.649.649 0 00-.456-.187H5.807a.649.649 0 00-.456.186.634.634 0 00-.189.451zm15.485.638h5.162v13.39h-5.162v-13.39zm-7.742 0h6.452v13.39h-6.452v-13.39zm-6.452 0h5.161v13.39H6.453v-13.39z" fill="#2A2554"/></svg>