<svg width="15" height="15" fill="none" xmlns="http://www.w3.org/2000/svg"><path d="M9.152 7.5l5.608-5.61a.816.816 0 00.24-.58.814.814 0 00-.24-.58l-.49-.49a.814.814 0 00-.58-.24.813.813 0 00-.58.24L7.5 5.848 1.892.24a.813.813 0 00-.58-.24.813.813 0 00-.58.24L.24.73a.822.822 0 000 1.161L5.848 7.5.24 13.108a.815.815 0 00-.24.58c0 .22.086.426.24.58l.492.491c.154.155.36.24.58.24.22 0 .425-.085.58-.24L7.5 9.151l5.608 5.608c.155.155.36.24.58.24.22 0 .426-.085.58-.24l.492-.49a.815.815 0 00.24-.581.815.815 0 00-.24-.58L9.152 7.5z" fill="#BDBDBD"/></svg>