<svg width="40" height="40" fill="none" xmlns="http://www.w3.org/2000/svg"><path d="M38.065 7.65H9.678a1.95 1.95 0 00-1.369.56 1.901 1.901 0 00-.567 1.353v3.825c0 .508.204.994.567 1.353s.855.56 1.369.56h1.29v23.59a.632.632 0 00.376.578.651.651 0 00.69-.095l4.064-3.443 3.448 3.408a.649.649 0 00.912 0l3.413-3.373 3.415 3.374a.649.649 0 00.912 0l3.45-3.407 4.064 3.442a.648.648 0 001.062-.485V15.301h1.29a1.95 1.95 0 001.37-.56c.362-.359.566-.845.566-1.353V9.563a1.9 1.9 0 00-.567-1.352 1.947 1.947 0 00-1.368-.56zm-5.161 23.59H14.838a.649.649 0 01-.456-.187.634.634 0 010-.902.649.649 0 01.456-.186h18.065c.17 0 .335.067.456.186a.633.633 0 010 .902.649.649 0 01-.456.187zm0-4.463H14.838a.65.65 0 01-.456-.187.634.634 0 010-.901.649.649 0 01.456-.187h18.065c.17 0 .335.067.456.187a.633.633 0 010 .901.65.65 0 01-.456.187zm0-4.463H14.838a.649.649 0 01-.456-.187.634.634 0 010-.901.65.65 0 01.456-.187h18.065a.65.65 0 01.456.187.634.634 0 010 .901.649.649 0 01-.456.187zm0-4.463H14.838a.649.649 0 01-.456-.187.634.634 0 010-.901.649.649 0 01.456-.187h18.065c.17 0 .335.067.456.187a.634.634 0 010 .901.649.649 0 01-.456.187zm5.806-4.463c0 .17-.068.332-.189.451a.649.649 0 01-.456.187h-1.29v-2.55a.633.633 0 00-.19-.451.649.649 0 00-.456-.187H11.613a.649.649 0 00-.456.187.634.634 0 00-.189.45v2.55h-1.29a.649.649 0 01-.457-.186.634.634 0 01-.188-.45V9.562c0-.17.067-.331.188-.45a.65.65 0 01.457-.188h28.387a.65.65 0 01.456.187c.121.12.189.282.189.451v3.825z" fill="#0756BB" fill-opacity=".45"/><path d="M25.161 0H4.516a4.549 4.549 0 00-3.192 1.309A4.441 4.441 0 000 4.463v24.864c0 .507.204.994.567 1.353.363.358.855.56 1.368.56H20c.513 0 1.006-.202 1.369-.56.363-.359.566-.846.566-1.353V21.04h5.162a2.6 2.6 0 001.825-.747 2.535 2.535 0 00.755-1.803V4.463a4.441 4.441 0 00-1.324-3.154A4.549 4.549 0 0025.161 0zm-4.516 4.463v24.864c0 .17-.068.331-.189.451a.649.649 0 01-.456.187H1.935a.649.649 0 01-.456-.187.634.634 0 01-.189-.45V4.462a3.173 3.173 0 01.946-2.253 3.25 3.25 0 012.28-.935H22a4.44 4.44 0 00-1.003 1.459 4.405 4.405 0 00-.352 1.729zm1.29 15.301v-7.65h1.936a.65.65 0 01.456.186c.121.12.19.282.19.451v5.738c.002.449.126.89.358 1.275h-2.94zm6.452-1.275c0 .338-.136.662-.378.901a1.298 1.298 0 01-1.825 0 1.268 1.268 0 01-.378-.901V12.75a1.9 1.9 0 00-.567-1.352 1.947 1.947 0 00-1.368-.56h-1.936V4.462c0-.846.34-1.656.945-2.254a3.245 3.245 0 012.281-.934c.856 0 1.676.336 2.281.934.605.598.945 1.408.945 2.254v14.026z" fill="#2A2554"/><path d="M7.09 19.117a24.951 24.951 0 01-.452-.163v-2.5c.207.058.4.154.571.284a.65.65 0 00.903-.05.633.633 0 00-.033-.892 3.108 3.108 0 00-1.44-.644v-.488a.634.634 0 00-.19-.45.649.649 0 00-.912 0 .634.634 0 00-.19.45v.537c-.068.017-.132.02-.202.042-.42.13-.794.372-1.084.7a2.352 2.352 0 00-.556 1.154 2.07 2.07 0 00.696 2.058c.354.264.739.483 1.147.654v3.233a2.272 2.272 0 01-1.124-.434.65.65 0 00-.996.412.63.63 0 00.29.655c.535.385 1.17.61 1.83.652v.538c0 .169.068.33.189.45a.65.65 0 00.912 0 .634.634 0 00.19-.45v-.6a2.911 2.911 0 001.44-.825c.387-.408.646-.919.744-1.47a2.465 2.465 0 00-.314-1.755 2.515 2.515 0 00-1.42-1.098zm-1.742-.74a3.14 3.14 0 01-.35-.225.84.84 0 01-.224-.82 1.129 1.129 0 01.574-.785v1.83zm2.203 3.379a1.58 1.58 0 01-.913 1.176v-2.62l.021.008a1.236 1.236 0 01.89 1.435l.002.001zm10.513-10.918H3.871a.65.65 0 00-.456.187.634.634 0 000 .902c.12.12.285.187.456.187h14.193a.649.649 0 00.456-.187.634.634 0 000-.902.65.65 0 00-.456-.187zm.001 4.463h-6.452a.649.649 0 00-.456.187.634.634 0 000 .902.65.65 0 00.456.186h6.452a.65.65 0 00.456-.186.634.634 0 000-.902.649.649 0 00-.456-.187zm0 4.463h-6.452a.649.649 0 00-.456.187.633.633 0 000 .901.65.65 0 00.456.187h6.452a.65.65 0 00.456-.187.634.634 0 000-.901.649.649 0 00-.456-.187zm0 4.463h-6.452a.649.649 0 00-.456.186.634.634 0 000 .902.65.65 0 00.456.187h6.452a.65.65 0 00.456-.187.634.634 0 000-.902.649.649 0 00-.456-.186zm-.001-17.852H3.871a.65.65 0 00-.456.187.634.634 0 000 .902.65.65 0 00.456.187h14.193a.65.65 0 00.456-.187.634.634 0 000-.902.65.65 0 00-.456-.187z" fill="#2A2554"/></svg>