<svg width="43" height="39" fill="none" xmlns="http://www.w3.org/2000/svg"><path d="M40.146 9.414h-29.94c-.541 0-1.06.213-1.443.59a2.005 2.005 0 00-.598 1.427V30.26c0 .535.215 1.048.598 1.426.383.378.902.591 1.443.591h29.94c.541 0 1.06-.213 1.443-.59.383-.38.598-.892.598-1.427V11.43c0-.535-.215-1.048-.598-1.426a2.054 2.054 0 00-1.443-.59zm-.68 19.5a.67.67 0 01-.2.476.684.684 0 01-.481.196H11.567a.685.685 0 01-.48-.196.669.669 0 01-.2-.476V12.776c0-.178.072-.35.2-.475a.685.685 0 01.48-.197h27.218a.682.682 0 01.681.672v16.138zm-10.887 6.471v-1.764h-6.804v1.764a14.25 14.25 0 00-5.172 2.404.673.673 0 00-.237.751.686.686 0 00.646.46h16.33a.686.686 0 00.646-.46.666.666 0 00-.238-.75 14.25 14.25 0 00-5.171-2.405z" fill="#0756BB" fill-opacity=".45"/><path d="M29.94 14.793h-3.403a.676.676 0 00-.68.672V27.57c0 .371.304.672.68.672h3.402c.376 0 .68-.3.68-.672V15.465a.676.676 0 00-.68-.672zm-6.125 2.69h-3.402a.677.677 0 00-.68.672v9.414c0 .372.304.673.68.673h3.402c.376 0 .68-.301.68-.673v-9.414a.676.676 0 00-.68-.672zm12.248 1.345h-3.402a.676.676 0 00-.68.672v8.069c0 .371.304.672.68.672h3.402c.376 0 .68-.3.68-.672V19.5a.676.676 0 00-.68-.672zm-18.372 2.017H14.29a.676.676 0 00-.68.672v6.052c0 .371.304.672.68.672h3.402c.376 0 .68-.3.68-.672v-6.052a.676.676 0 00-.68-.672z" fill="#0756BB" fill-opacity=".45"/><path d="M17.927 16.363a8.802 8.802 0 003.128-2.918 8.673 8.673 0 001.365-4.031h4.117c.18 0 .354-.071.481-.197a.668.668 0 000-.951.685.685 0 00-.48-.197H22.42a8.67 8.67 0 00-1.48-4.21A8.809 8.809 0 0017.552.92a8.93 8.93 0 00-8.709.456 8.777 8.777 0 00-3.054 3.279 8.652 8.652 0 00.257 8.614 8.795 8.795 0 003.245 3.095 11.61 11.61 0 00-6.667 3.966A11.366 11.366 0 000 27.569c0 .176.07.345.194.47a18.767 18.767 0 006.137 4.13 18.949 18.949 0 0014.556 0 18.768 18.768 0 006.137-4.13.669.669 0 00.194-.47 11.366 11.366 0 00-2.624-7.24 11.61 11.61 0 00-6.667-3.966zM13.609 1.345a7.542 7.542 0 015.042 1.937 7.372 7.372 0 012.408 4.787H6.157a7.372 7.372 0 012.409-4.788 7.542 7.542 0 015.043-1.936zm-7.45 8.069H21.06a7.36 7.36 0 01-2.403 4.795 7.53 7.53 0 01-5.047 1.937 7.53 7.53 0 01-5.048-1.937 7.36 7.36 0 01-2.403-4.795zM16.19 17.51l-.414 1.99h-4.334l-.415-1.99c.745-.04 4.444-.038 5.163 0zm-2.58 14.766a17.456 17.456 0 01-6.624-1.286 17.294 17.294 0 01-5.62-3.695c.067-2.3.926-4.509 2.437-6.26a10.248 10.248 0 015.868-3.372l.55 2.645a.672.672 0 00.237.385.686.686 0 00.43.152h5.444a.686.686 0 00.43-.152.67.67 0 00.236-.386l.55-2.645a10.248 10.248 0 015.867 3.373 10.032 10.032 0 012.435 6.26 17.296 17.296 0 01-5.618 3.695c-2.1.854-4.35 1.291-6.622 1.286z" fill="#2A2554"/></svg>