<svg width="41" height="39" fill="none" xmlns="http://www.w3.org/2000/svg"><path d="M38.101 7.378H19.872c-.518 0-1.015.2-1.381.556a1.87 1.87 0 00-.572 1.342v27.827c0 .503.206.986.572 1.341.366.356.863.556 1.381.556h18.229c.518 0 1.015-.2 1.381-.556a1.87 1.87 0 00.572-1.341V9.276a1.87 1.87 0 00-.572-1.342 1.982 1.982 0 00-1.381-.556zm-9.114 29.725a1.33 1.33 0 01-.724-.213 1.274 1.274 0 01-.48-.568 1.23 1.23 0 01-.074-.73 1.25 1.25 0 01.357-.648c.182-.177.414-.298.667-.347.252-.049.514-.023.752.072.238.096.441.258.584.466a1.239 1.239 0 01-.162 1.597 1.32 1.32 0 01-.92.37zm8.463-5.06a.623.623 0 01-.19.447.66.66 0 01-.461.186H21.174a.66.66 0 01-.46-.186.623.623 0 01-.19-.447V10.541c0-.168.068-.329.19-.448a.66.66 0 01.46-.185H36.8a.66.66 0 01.46.185c.122.119.19.28.19.448v21.502z" fill="#0756BB" fill-opacity=".45"/><path d="M28.986 12.648a5.823 5.823 0 00-4.097 1.69 5.747 5.747 0 00-1.7 4.07c0 5.283 5.078 11.647 5.294 11.92a.644.644 0 00.782.176.644.644 0 00.224-.177c.216-.269 5.295-6.636 5.295-11.919a5.747 5.747 0 00-1.7-4.07 5.823 5.823 0 00-4.098-1.69zm0 8.32a2.58 2.58 0 01-1.431-.432 2.564 2.564 0 01-.95-1.148 2.545 2.545 0 01.56-2.79 2.592 2.592 0 012.808-.555c.47.194.872.522 1.156.943a2.548 2.548 0 01-.32 3.232 2.59 2.59 0 01-1.823.75z" fill="#0756BB" fill-opacity=".45"/><path d="M28.616 1.863h-5.853V.638a.632.632 0 00-.19-.451.657.657 0 00-.92 0 .632.632 0 00-.19.45v1.226h-5.529V.638a.632.632 0 00-.19-.451.657.657 0 00-.92 0 .632.632 0 00-.19.45v1.226h-5.53V.638a.632.632 0 00-.19-.451.657.657 0 00-.92 0 .632.632 0 00-.19.45v1.226H1.95a1.97 1.97 0 00-1.38.56A1.895 1.895 0 000 3.776v21.816a.664.664 0 00.296.528l6.822 4.346a.755.755 0 00.352.102h21.146a1.97 1.97 0 001.38-.56 1.9 1.9 0 00.572-1.354V3.776c0-.507-.206-.994-.572-1.353a1.97 1.97 0 00-1.38-.56zM2.01 25.689l2.36-1.03 1.614 3.563L2.01 25.69zm27.258 2.965c0 .17-.069.331-.19.451a.657.657 0 01-.46.187H7.894l-2.602-5.734a.645.645 0 00-.36-.336.662.662 0 00-.498.012L1.3 24.602V3.776c0-.169.068-.331.19-.45a.657.657 0 01.46-.188h5.853v1.276c0 .17.069.332.191.451a.657.657 0 00.92 0 .632.632 0 00.19-.45V3.137h5.528v1.276c0 .17.069.332.19.451a.657.657 0 00.92 0 .632.632 0 00.191-.45V3.137h5.528v1.276c0 .17.069.332.19.451a.657.657 0 00.92 0 .632.632 0 00.191-.45V3.137h5.853a.66.66 0 01.46.187c.122.12.19.282.19.451v24.878z" fill="#2A2554"/><path d="M25.68 8.433H4.888c-.178 0-.348.11-.474.308a1.414 1.414 0 00-.197.746c0 .28.071.547.197.745.126.198.296.309.474.309h20.794c.178 0 .348-.111.474-.309s.196-.466.196-.745c0-.28-.07-.548-.196-.746-.126-.197-.296-.308-.474-.308zm0 5.27H4.888a.773.773 0 00-.474.154.478.478 0 00-.197.373c0 .14.071.274.197.372a.773.773 0 00.474.155h20.794a.773.773 0 00.474-.155.477.477 0 00.196-.372c0-.14-.07-.274-.196-.373a.773.773 0 00-.474-.154zm0 5.27H4.888a.773.773 0 00-.474.155.478.478 0 00-.197.372c0 .14.071.274.197.373a.773.773 0 00.474.154h20.794a.773.773 0 00.474-.154.477.477 0 00.196-.373c0-.14-.07-.274-.196-.372a.773.773 0 00-.474-.155zm.013 5.27H11.199a.75.75 0 00-.466.155.48.48 0 00-.193.372c0 .14.07.274.194.373a.75.75 0 00.465.154h14.494a.75.75 0 00.465-.154.48.48 0 00.193-.373.48.48 0 00-.193-.372.75.75 0 00-.465-.155z" fill="#2A2554"/></svg>