<svg width="40" height="39" fill="none" xmlns="http://www.w3.org/2000/svg"><path d="M23.552 7.548a16.05 16.05 0 00-8.841 2.65 15.768 15.768 0 00-5.861 7.058 15.554 15.554 0 00-.906 9.086 15.669 15.669 0 004.355 8.052 15.973 15.973 0 008.148 4.304 16.09 16.09 0 009.195-.895 15.875 15.875 0 007.141-5.792 15.594 15.594 0 002.682-8.737A15.65 15.65 0 0034.8 12.16a16.028 16.028 0 00-11.247-4.61zm5.092 26.42H18.46a.64.64 0 01-.45-.185.625.625 0 010-.89.64.64 0 01.45-.183h10.185a.64.64 0 01.45.184.626.626 0 010 .89.64.64 0 01-.45.184zm1.752-3.057c-8.439-5.654-8.588-5.802-8.645-5.858a2.5 2.5 0 01-.745-1.779c0-.667.268-1.307.745-1.779a2.622 2.622 0 011.8-.713c.67 0 1.316.255 1.8.713.056.055.207.203 5.929 8.543a.623.623 0 01-.077.797.64.64 0 01-.807.076zM33 32.61a.64.64 0 01-.892-.008.625.625 0 01-.008-.882 11.908 11.908 0 003.313-6.12 11.82 11.82 0 00-.687-6.906 11.983 11.983 0 00-4.454-5.365 12.197 12.197 0 00-6.72-2.015c-2.393 0-4.732.7-6.72 2.015a11.984 11.984 0 00-4.455 5.365 11.822 11.822 0 00-.686 6.907 11.91 11.91 0 003.313 6.12.625.625 0 01-.008.88.64.64 0 01-.893.009 13.163 13.163 0 01-3.661-6.764 13.065 13.065 0 01.759-7.634 13.245 13.245 0 014.923-5.93 13.481 13.481 0 017.428-2.227c2.644 0 5.229.775 7.427 2.227a13.244 13.244 0 014.924 5.93 13.064 13.064 0 01.758 7.634A13.162 13.162 0 0133 32.61z" fill="#0756BB" fill-opacity=".45"/><path d="M31.688 9.042l-4.71-5.818a1.9 1.9 0 00-1.492-.708H20.37v-.629c0-.5-.2-.98-.559-1.334A1.921 1.921 0 0018.46 0H1.91C1.403 0 .917.199.56.553.2.907 0 1.387 0 1.887v15.726c0 .5.201.98.56 1.334.357.354.843.553 1.35.553h.7a3.14 3.14 0 001.105 1.81 3.206 3.206 0 004.028 0 3.14 3.14 0 001.105-1.81h13.495a3.14 3.14 0 001.105 1.81 3.206 3.206 0 004.028 0 3.14 3.14 0 001.105-1.81h1.337c.506 0 .992-.199 1.35-.553.358-.354.56-.834.56-1.334V9.435a.624.624 0 00-.14-.393zM5.728 20.758a1.92 1.92 0 01-1.06-.318 1.893 1.893 0 01-.703-.847 1.866 1.866 0 01.414-2.056 1.93 1.93 0 012.081-.409c.349.142.647.384.857.695a1.871 1.871 0 01-.238 2.382 1.921 1.921 0 01-1.35.553zm13.368-2.516H8.848a3.139 3.139 0 00-1.105-1.81 3.206 3.206 0 00-2.014-.71c-.734 0-1.446.251-2.014.71a3.139 3.139 0 00-1.105 1.81h-.7a.64.64 0 01-.45-.184.625.625 0 01-.187-.445V1.887c0-.167.067-.327.187-.445a.64.64 0 01.45-.184h16.55a.64.64 0 01.45.184c.12.118.186.278.186.445v16.355zm6.366 2.516a1.92 1.92 0 01-1.061-.318 1.892 1.892 0 01-.704-.847 1.867 1.867 0 01.414-2.056 1.93 1.93 0 012.081-.409c.35.142.648.384.857.695a1.871 1.871 0 01-.237 2.382 1.921 1.921 0 01-1.35.553zm5.092-3.145a.625.625 0 01-.186.445.64.64 0 01-.45.184H28.58a3.139 3.139 0 00-1.105-1.81 3.206 3.206 0 00-2.014-.71c-.735 0-1.446.251-2.014.71a3.139 3.139 0 00-1.105 1.81h-1.974V3.774h5.117a.64.64 0 01.497.236l4.571 5.646v7.957z" fill="#2A2554"/><path d="M15.914 5.661H4.456a.64.64 0 00-.45.184.625.625 0 000 .89.64.64 0 00.45.184h11.458a.64.64 0 00.45-.184.625.625 0 000-.89.64.64 0 00-.45-.184zm0 6.291H4.456a.64.64 0 00-.45.184.625.625 0 000 .89.64.64 0 00.45.184h11.458a.64.64 0 00.45-.185.625.625 0 000-.89.64.64 0 00-.45-.183zm0-3.145H4.456a.64.64 0 00-.45.184.625.625 0 000 .89.64.64 0 00.45.184h11.458a.64.64 0 00.45-.184.625.625 0 000-.89.64.64 0 00-.45-.184z" fill="#151A6A"/></svg>