<svg width="40" height="41" fill="none" xmlns="http://www.w3.org/2000/svg"><path d="M25.573 28.513c1.449 0 2.623-1.16 2.623-2.592 0-1.432-1.174-2.592-2.623-2.592-1.448 0-2.623 1.16-2.623 2.592 0 1.431 1.175 2.592 2.623 2.592z" fill="#0756BB" fill-opacity=".45"/><path d="M25.573 11.664a14.55 14.55 0 00-8.015 2.403 14.294 14.294 0 00-5.313 6.398 14.1 14.1 0 00-.82 8.237A14.205 14.205 0 0015.371 36a14.48 14.48 0 007.387 3.902c2.799.55 5.7.267 8.335-.812a14.39 14.39 0 006.475-5.25A14.137 14.137 0 0040 25.92c0-3.782-1.52-7.408-4.225-10.081a14.515 14.515 0 00-10.201-4.176zM19.082 33.25a.66.66 0 01-.925 0 10.33 10.33 0 01-2.87-5.307 10.254 10.254 0 01.598-5.989 10.396 10.396 0 013.862-4.652 10.582 10.582 0 015.826-1.749.663.663 0 01.557.31.642.642 0 01.027.63L24.19 20.38a.648.648 0 01-.378.358.664.664 0 01-.733-.194.645.645 0 01-.056-.747l1.455-2.884a9.237 9.237 0 00-4.668 1.946 9.073 9.073 0 00-2.913 4.096 8.97 8.97 0 00-.27 5 9.043 9.043 0 002.455 4.38.644.644 0 010 .914zm2.557-7.329c0-.769.23-1.52.663-2.16a3.925 3.925 0 011.766-1.432 3.978 3.978 0 012.273-.221 3.95 3.95 0 012.015 1.064c.55.544.925 1.237 1.076 1.99a3.845 3.845 0 01-.223 2.247 3.898 3.898 0 01-1.45 1.745 3.967 3.967 0 01-4.968-.483 3.865 3.865 0 01-1.152-2.75zm11.351 7.33a10.409 10.409 0 01-3.4 2.255 10.508 10.508 0 01-4.017.783.661.661 0 01-.556-.308.643.643 0 01-.027-.631l1.967-3.888a.663.663 0 01.858-.244.641.641 0 01.31.827l-1.456 2.884a9.239 9.239 0 004.668-1.946 9.074 9.074 0 002.914-4.097 8.97 8.97 0 00.27-5 9.043 9.043 0 00-2.456-4.38.644.644 0 01.035-.88.66.66 0 01.89-.034 10.306 10.306 0 013.07 7.33c0 2.748-1.104 5.384-3.07 7.328z" fill="#0756BB" fill-opacity=".45"/><path d="M17.704 32.4h-4.301a2.125 2.125 0 01-1.478-.601 2.075 2.075 0 01-.627-1.453V28.19l-4.086-2.333-1.901 1.056a2.127 2.127 0 01-1.587.193 2.102 2.102 0 01-1.266-.964L.281 22.46a2.065 2.065 0 01-.213-1.568c.14-.53.485-.984.96-1.265l1.876-1.095v-4.666L1.03 12.772a2.09 2.09 0 01-.96-1.264A2.065 2.065 0 01.28 9.94l2.152-3.68a2.1 2.1 0 011.266-.964 2.127 2.127 0 011.587.193l1.901 1.056 4.086-2.333V2.054a2.075 2.075 0 01.636-1.461c.4-.385.937-.598 1.495-.593h4.301a2.125 2.125 0 011.478.602c.394.384.619.906.627 1.452v2.158l4.125 2.333 1.902-1.056a2.134 2.134 0 011.59-.194c.534.145.99.491 1.269.965l2.15 3.68c.275.476.35 1.04.208 1.569-.14.529-.486.982-.961 1.263l-1.895 1.095v4.666l1.875 1.095a2.076 2.076 0 01.754 2.832l-2.15 3.68c-.28.475-.735.821-1.27.965a2.134 2.134 0 01-1.59-.193l-1.882-1.056-4.079 2.332v2.158a2.064 2.064 0 01-.643 1.469 2.114 2.114 0 01-1.508.586zM7.54 24.554l4.728 2.696a.652.652 0 01.328.557l.033 2.52a.78.78 0 00.228.544c.144.146.34.23.546.235h4.301a.805.805 0 00.557-.23.786.786 0 00.237-.548v-2.52a.643.643 0 01.328-.558l4.734-2.696a.662.662 0 01.656 0l2.223 1.238a.808.808 0 001.082-.292l2.15-3.68a.782.782 0 00-.268-1.083l-2.19-1.296a.653.653 0 01-.322-.557v-5.385a.643.643 0 01.322-.538l2.197-1.296a.782.782 0 00.288-1.07l-2.157-3.686a.809.809 0 00-1.082-.292l-2.223 1.238a.661.661 0 01-.656 0l-4.728-2.67a.652.652 0 01-.328-.557v-2.52a.783.783 0 00-.234-.58.801.801 0 00-.585-.23h-4.302c-.21 0-.41.08-.559.226a.78.78 0 00-.235.55l-.033 2.521a.642.642 0 01-.327.558L7.54 7.847a.662.662 0 01-.655 0L4.655 6.61a.802.802 0 00-1.075.29l-2.164 3.69a.782.782 0 00.282 1.075l2.196 1.296a.651.651 0 01.322.558v5.404a.643.643 0 01-.322.557l-2.196 1.257a.782.782 0 00-.282 1.07l2.15 3.68a.802.802 0 001.075.292l2.244-1.231a.662.662 0 01.655.006zm8.014-2.52a5.951 5.951 0 01-3.28-.984 5.847 5.847 0 01-2.173-2.617 5.769 5.769 0 01-.336-3.37 5.811 5.811 0 011.615-2.986 5.923 5.923 0 013.022-1.596 5.967 5.967 0 013.41.332c1.078.442 2 1.19 2.649 2.148a5.79 5.79 0 01.994 3.24c0 1.547-.621 3.03-1.728 4.124a5.937 5.937 0 01-4.173 1.708zm0-10.369a4.63 4.63 0 00-2.55.765 4.549 4.549 0 00-1.691 2.035 4.487 4.487 0 00-.261 2.621 4.52 4.52 0 001.256 2.323 4.607 4.607 0 002.35 1.241 4.64 4.64 0 002.652-.258 4.579 4.579 0 002.06-1.67 4.498 4.498 0 00-.57-5.728 4.618 4.618 0 00-3.246-1.329z" fill="#2A2554"/></svg>