<svg width="43" height="39" viewBox="0 0 43 39" fill="none" xmlns="http://www.w3.org/2000/svg">
<path d="M40.1458 9.41406H10.2064C9.66497 9.41406 9.14575 9.62659 8.76293 10.0049C8.38011 10.3832 8.16504 10.8963 8.16504 11.4313V30.2588C8.16504 30.7938 8.38011 31.3069 8.76293 31.6852C9.14575 32.0635 9.66497 32.2761 10.2064 32.2761H40.1458C40.6872 32.2761 41.2064 32.0635 41.5892 31.6852C41.972 31.3069 42.1871 30.7938 42.1871 30.2588V11.4313C42.1871 10.8963 41.972 10.3832 41.5892 10.0049C41.2064 9.62659 40.6872 9.41406 40.1458 9.41406ZM39.4653 28.914C39.4653 29.0923 39.3936 29.2634 39.266 29.3895C39.1384 29.5156 38.9654 29.5864 38.7849 29.5864H11.5672C11.3868 29.5864 11.2137 29.5156 11.0861 29.3895C10.9585 29.2634 10.8868 29.0923 10.8868 28.914V12.7761C10.8868 12.5978 10.9585 12.4268 11.0861 12.3007C11.2137 12.1746 11.3868 12.1037 11.5672 12.1037H38.7849C38.9654 12.1037 39.1384 12.1746 39.266 12.3007C39.3936 12.4268 39.4653 12.5978 39.4653 12.7761V28.914Z" fill="#0756BB" fill-opacity="0.45"/>
<path d="M28.579 35.385V33.6206H21.7746V35.385C19.9035 35.8312 18.1439 36.6493 16.6032 37.7895C16.489 37.8742 16.4046 37.9923 16.362 38.127C16.3194 38.2617 16.3208 38.4062 16.366 38.5401C16.4111 38.674 16.4978 38.7904 16.6136 38.8729C16.7295 38.9554 16.8687 38.9999 17.0115 38.9999H33.3421C33.4849 38.9999 33.6241 38.9554 33.7399 38.8729C33.8558 38.7904 33.9424 38.674 33.9876 38.5401C34.0327 38.4062 34.0341 38.2617 33.9916 38.127C33.949 37.9923 33.8646 37.8742 33.7503 37.7895C32.2096 36.6493 30.4501 35.8312 28.579 35.385Z" fill="#0756BB" fill-opacity="0.45"/>
<path d="M29.9391 14.793H26.5369C26.1611 14.793 25.8564 15.094 25.8564 15.4654V27.5688C25.8564 27.9402 26.1611 28.2412 26.5369 28.2412H29.9391C30.3149 28.2412 30.6195 27.9402 30.6195 27.5688V15.4654C30.6195 15.094 30.3149 14.793 29.9391 14.793Z" fill="#0756BB" fill-opacity="0.45"/>
<path d="M23.8151 17.4829H20.4129C20.0371 17.4829 19.7324 17.784 19.7324 18.1553V27.5692C19.7324 27.9406 20.0371 28.2417 20.4129 28.2417H23.8151C24.1909 28.2417 24.4955 27.9406 24.4955 27.5692V18.1553C24.4955 17.784 24.1909 17.4829 23.8151 17.4829Z" fill="#0756BB" fill-opacity="0.45"/>
<path d="M36.0631 18.8276H32.6609C32.2851 18.8276 31.9805 19.1287 31.9805 19.5V27.569C31.9805 27.9403 32.2851 28.2414 32.6609 28.2414H36.0631C36.4389 28.2414 36.7435 27.9403 36.7435 27.569V19.5C36.7435 19.1287 36.4389 18.8276 36.0631 18.8276Z" fill="#0756BB" fill-opacity="0.45"/>
<path d="M17.6911 20.8447H14.2888C13.913 20.8447 13.6084 21.1458 13.6084 21.5171V27.5689C13.6084 27.9402 13.913 28.2413 14.2888 28.2413H17.6911C18.0669 28.2413 18.3715 27.9402 18.3715 27.5689V21.5171C18.3715 21.1458 18.0669 20.8447 17.6911 20.8447Z" fill="#0756BB" fill-opacity="0.45"/>
<path d="M17.9269 16.3626C19.1966 15.6591 20.2709 14.6568 21.0546 13.4447C21.8384 12.2325 22.3073 10.848 22.4199 9.41388H26.5372C26.7177 9.41388 26.8908 9.34304 27.0184 9.21694C27.146 9.09083 27.2177 8.9198 27.2177 8.74147C27.2177 8.56313 27.146 8.3921 27.0184 8.266C26.8908 8.1399 26.7177 8.06906 26.5372 8.06906H22.4199C22.3031 6.56306 21.7932 5.11271 20.9399 3.85955C20.0867 2.60639 18.9193 1.59322 17.5516 0.91893C16.1839 0.244638 14.6627 -0.0677437 13.1364 0.012269C11.6101 0.0922817 10.1308 0.561956 8.84303 1.37546C7.55521 2.18896 6.50281 3.31849 5.78854 4.65383C5.07426 5.98916 4.72251 7.48468 4.76761 8.99443C4.81271 10.5042 5.25313 11.9766 6.04587 13.268C6.83862 14.5593 7.95661 15.6256 9.29075 16.3626C6.67203 16.8854 4.31666 18.2866 2.62353 20.3289C0.9304 22.3711 0.00357016 24.9289 2.60931e-07 27.569C-0.000155539 27.7449 0.0694643 27.9139 0.193926 28.0397C1.94072 29.8065 4.02731 31.2105 6.33105 32.1691C8.63479 33.1276 11.1092 33.6214 13.6088 33.6214C16.1085 33.6214 18.5829 33.1276 20.8866 32.1691C23.1903 31.2105 25.2769 29.8065 27.0237 28.0397C27.1482 27.9139 27.2178 27.7449 27.2177 27.569C27.2141 24.9289 26.2873 22.3711 24.5941 20.3289C22.901 18.2866 20.5456 16.8854 17.9269 16.3626ZM13.6088 1.34495C15.4751 1.34739 17.2732 2.03807 18.6512 3.28177C20.0291 4.52547 20.8878 6.23263 21.059 8.06906H6.15731C6.32853 6.2324 7.18737 4.52505 8.56564 3.28132C9.94392 2.03758 11.7424 1.34706 13.6088 1.34495ZM6.15867 9.41388H21.0603C20.8934 11.2527 20.0361 12.9633 18.6573 14.209C17.2784 15.4548 15.4778 16.1456 13.6095 16.1456C11.7412 16.1456 9.94057 15.4548 8.56173 14.209C7.18288 12.9633 6.32566 11.2527 6.15867 9.41388ZM16.1904 17.5097L15.776 19.5H11.4416L11.0272 17.5097C11.7716 17.4707 15.4705 17.472 16.1904 17.5097ZM13.6088 32.2758C11.3368 32.2819 9.08593 31.8452 6.98497 30.9905C4.884 30.1359 2.97423 28.8802 1.36497 27.2953C1.43176 24.995 2.29143 22.7863 3.80167 21.0346C5.31191 19.283 7.38216 18.0935 9.66975 17.663L10.2209 20.3076C10.2524 20.4592 10.3359 20.5955 10.4572 20.6934C10.5786 20.7913 10.7304 20.8448 10.8871 20.8449H16.3306C16.4873 20.8447 16.6392 20.7911 16.7606 20.6931C16.882 20.5951 16.9654 20.4587 16.9967 20.3069L17.5479 17.6623C19.8349 18.0935 21.9043 19.2833 23.4139 21.0349C24.9235 22.7864 25.7827 24.9948 25.8493 27.2946C24.2405 28.8792 22.3313 30.1348 20.2309 30.9896C18.1306 31.8443 15.8803 32.2814 13.6088 32.2758Z" fill="#2A2554"/>
</svg>
