<svg width="41" height="41" viewBox="0 0 41 41" fill="none" xmlns="http://www.w3.org/2000/svg">
<path d="M23.1444 23.5894C22.1676 23.5894 21.2127 23.8756 20.4005 24.4119C19.5884 24.9482 18.9553 25.7104 18.5815 26.6022C18.2077 27.494 18.1099 28.4753 18.3005 29.4221C18.491 30.3688 18.9614 31.2384 19.6521 31.921C20.3428 32.6036 21.2229 33.0684 22.1809 33.2567C23.139 33.445 24.132 33.3484 25.0345 32.979C25.9369 32.6096 26.7083 31.984 27.2509 31.1814C27.7936 30.3788 28.0833 29.4352 28.0833 28.4699C28.0833 27.1755 27.563 25.9341 26.6367 25.0188C25.7105 24.1036 24.4543 23.5894 23.1444 23.5894ZM25.9422 29.1644C25.764 29.1528 25.5968 29.0746 25.4748 28.9456C25.3528 28.8166 25.2851 28.6465 25.2855 28.4699C25.2855 27.9157 25.0627 27.3841 24.6661 26.9922C24.2695 26.6003 23.7316 26.3801 23.1707 26.3801C22.9952 26.3634 22.8323 26.2826 22.7138 26.1536C22.5952 26.0246 22.5296 25.8567 22.5296 25.6824C22.5296 25.5082 22.5952 25.3402 22.7138 25.2112C22.8323 25.0822 22.9952 25.0015 23.1707 24.9847C24.1055 24.9864 25.0016 25.3542 25.6626 26.0074C26.3237 26.6606 26.6958 27.5461 26.6975 28.4699C26.6978 28.5657 26.678 28.6604 26.6395 28.7482C26.6009 28.8361 26.5444 28.9151 26.4735 28.9803C26.4026 29.0455 26.3188 29.0955 26.2273 29.1272C26.1359 29.1589 26.0389 29.1715 25.9422 29.1644Z" fill="#0756BB" fill-opacity="0.45"/>
<path d="M33.0155 19.4097H13.2798C12.7212 19.4097 12.1853 19.6281 11.7891 20.0172C11.3928 20.4063 11.1685 20.9345 11.165 21.4865V39.6134C11.1655 39.7508 11.2071 39.885 11.2848 39.999C11.3624 40.1131 11.4726 40.2017 11.6013 40.2539C11.73 40.306 11.8714 40.3192 12.0077 40.2918C12.144 40.2645 12.269 40.1977 12.3669 40.1001L14.994 37.5041H33.0155C33.5736 37.5041 34.1092 37.2868 34.5063 36.8993C34.9034 36.5118 35.13 35.9852 35.1369 35.4337V21.4865C35.1317 20.9339 34.9059 20.4057 34.5086 20.0168C34.1113 19.6278 33.5747 19.4096 33.0155 19.4097ZM23.1641 34.7328C21.909 34.7328 20.6821 34.3649 19.6387 33.6758C18.5952 32.9866 17.7821 32.007 17.3021 30.8611C16.8221 29.7151 16.6968 28.4542 16.9422 27.2379C17.1875 26.0215 17.7924 24.9044 18.6803 24.0279C19.5682 23.1514 20.6993 22.5548 21.9304 22.3136C23.1615 22.0724 24.4373 22.1975 25.5965 22.673C26.7557 23.1485 27.7461 23.9531 28.4424 24.985C29.1387 26.0168 29.5097 27.2296 29.5084 28.4699C29.5076 29.2943 29.3422 30.1104 29.0217 30.8716C28.7013 31.6327 28.232 32.324 27.6409 32.9057C27.0498 33.4875 26.3484 33.9483 25.5768 34.2618C24.8052 34.5753 23.9786 34.7354 23.1444 34.7328H23.1641Z" fill="#0756BB" fill-opacity="0.45"/>
<path d="M37.9479 13.8412H18.245C17.964 13.836 17.6847 13.8862 17.4236 13.9889C17.1625 14.0916 16.9247 14.2448 16.7241 14.4393C16.5235 14.6339 16.3642 14.866 16.2555 15.1222C16.1468 15.3783 16.0908 15.6533 16.0908 15.931V18.0208H33.0156C33.9464 18.0225 34.8388 18.3878 35.4982 19.037C36.1577 19.6862 36.5306 20.5667 36.5358 21.4866V32.2407L38.8608 34.5317C38.959 34.6297 39.0847 34.6966 39.2216 34.7238C39.3585 34.7509 39.5005 34.7372 39.6294 34.6842C39.7584 34.6313 39.8685 34.5416 39.9456 34.4266C40.0228 34.3116 40.0635 34.1765 40.0626 34.0385V15.931C40.0626 15.3768 39.8398 14.8452 39.4432 14.4533C39.0466 14.0614 38.5087 13.8412 37.9479 13.8412Z" fill="#0756BB" fill-opacity="0.45"/>
<path d="M8.13072 26.4581C8.6182 26.0162 8.95925 25.4391 9.1092 24.8024C9.25915 24.1657 9.211 23.4991 8.97107 22.8899C8.73113 22.2806 8.3106 21.7573 7.76455 21.3882C7.2185 21.0192 6.57239 20.8218 5.91086 20.8218C5.24933 20.8218 4.60323 21.0192 4.05717 21.3882C3.51112 21.7573 3.09059 22.2806 2.85065 22.8899C2.61072 23.4991 2.56257 24.1657 2.71252 24.8024C2.86247 25.4391 3.20352 26.0162 3.691 26.4581C2.60046 26.8948 1.66662 27.6432 1.00906 28.6075C0.351507 29.5718 0.000156758 30.708 0 31.8708C0 32.043 0.0691944 32.208 0.192361 32.3298C0.315528 32.4515 0.482578 32.5198 0.656762 32.5198H11.165C11.3391 32.5198 11.5062 32.4515 11.6294 32.3298C11.7525 32.208 11.8217 32.043 11.8217 31.8708C11.8216 30.708 11.4702 29.5718 10.8127 28.6075C10.1551 27.6432 9.22126 26.8948 8.13072 26.4581ZM3.94057 24.0827C3.94057 23.6976 4.05613 23.3212 4.27263 23.001C4.48913 22.6808 4.79684 22.4313 5.15686 22.2839C5.51689 22.1365 5.91305 22.098 6.29524 22.1731C6.67744 22.2482 7.02851 22.4337 7.30406 22.706C7.57961 22.9783 7.76727 23.3252 7.84329 23.7029C7.91931 24.0806 7.88029 24.472 7.73117 24.8278C7.58204 25.1836 7.32951 25.4877 7.00549 25.7016C6.68148 25.9156 6.30055 26.0298 5.91086 26.0298C5.38831 26.0298 4.88716 25.8246 4.51766 25.4595C4.14816 25.0943 3.94057 24.5991 3.94057 24.0827ZM1.3595 31.2218C1.51565 30.1389 2.06195 29.148 2.89806 28.4312C3.73416 27.7143 4.80393 27.3196 5.91086 27.3196C7.01779 27.3196 8.08756 27.7143 8.92366 28.4312C9.75977 29.148 10.3061 30.1389 10.4622 31.2218H1.3595Z" fill="#2A2554"/>
<path d="M29.1473 26.4581C29.6348 26.0162 29.9759 25.4391 30.1258 24.8024C30.2758 24.1657 30.2276 23.4991 29.9877 22.8899C29.7477 22.2806 29.3272 21.7573 28.7811 21.3882C28.2351 21.0192 27.589 20.8218 26.9275 20.8218C26.2659 20.8218 25.6198 21.0192 25.0738 21.3882C24.5277 21.7573 24.1072 22.2806 23.8673 22.8899C23.6273 23.4991 23.5792 24.1657 23.7291 24.8024C23.8791 25.4391 24.2201 26.0162 24.7076 26.4581C23.6171 26.8948 22.6832 27.6432 22.0257 28.6075C21.3681 29.5718 21.0168 30.708 21.0166 31.8708C21.0166 32.043 21.0858 32.208 21.209 32.3298C21.3321 32.4515 21.4992 32.5198 21.6734 32.5198H32.1816C32.3557 32.5198 32.5228 32.4515 32.646 32.3298C32.7691 32.208 32.8383 32.043 32.8383 31.8708C32.8382 30.708 32.4868 29.5718 31.8293 28.6075C31.1717 27.6432 30.2379 26.8948 29.1473 26.4581ZM24.9572 24.0827C24.9572 23.6976 25.0727 23.3212 25.2892 23.001C25.5057 22.6808 25.8134 22.4313 26.1735 22.2839C26.5335 22.1365 26.9296 22.098 27.3118 22.1731C27.694 22.2482 28.0451 22.4337 28.3207 22.706C28.5962 22.9783 28.7839 23.3252 28.8599 23.7029C28.9359 24.0806 28.8969 24.472 28.7478 24.8278C28.5986 25.1836 28.3461 25.4877 28.0221 25.7016C27.6981 25.9156 27.3171 26.0298 26.9275 26.0298C26.4049 26.0298 25.9038 25.8246 25.5343 25.4595C25.1648 25.0943 24.9572 24.5991 24.9572 24.0827ZM22.3761 31.2218C22.5323 30.1389 23.0786 29.148 23.9147 28.4312C24.7508 27.7143 25.8205 27.3196 26.9275 27.3196C28.0344 27.3196 29.1042 27.7143 29.9403 28.4312C30.7764 29.148 31.3227 30.1389 31.4788 31.2218H22.3761Z" fill="#2A2554"/>
<path d="M8.13072 5.68958C8.6182 5.24766 8.95925 4.67055 9.1092 4.03384C9.25915 3.39714 9.211 2.73052 8.97107 2.12131C8.73113 1.5121 8.3106 0.988707 7.76455 0.619686C7.2185 0.250664 6.57239 0.0532227 5.91086 0.0532227C5.24933 0.0532227 4.60323 0.250664 4.05717 0.619686C3.51112 0.988707 3.09059 1.5121 2.85065 2.12131C2.61072 2.73052 2.56257 3.39714 2.71252 4.03384C2.86247 4.67055 3.20352 5.24766 3.691 5.68958C2.60046 6.12627 1.66662 6.87468 1.00906 7.83897C0.351507 8.80326 0.000156758 9.93954 0 11.1023C0 11.2745 0.0691944 11.4395 0.192361 11.5613C0.315528 11.683 0.482578 11.7514 0.656762 11.7514H11.165C11.3391 11.7514 11.5062 11.683 11.6294 11.5613C11.7525 11.4395 11.8217 11.2745 11.8217 11.1023C11.8216 9.93954 11.4702 8.80326 10.8127 7.83897C10.1551 6.87468 9.22126 6.12627 8.13072 5.68958ZM3.94057 3.31419C3.94057 2.9291 4.05613 2.55266 4.27263 2.23247C4.48913 1.91229 4.79684 1.66273 5.15686 1.51536C5.51689 1.368 5.91305 1.32944 6.29524 1.40457C6.67744 1.47969 7.02851 1.66513 7.30406 1.93743C7.57961 2.20973 7.76727 2.55665 7.84329 2.93434C7.91931 3.31203 7.88029 3.70352 7.73117 4.05929C7.58204 4.41506 7.32951 4.71915 7.00549 4.93309C6.68148 5.14704 6.30055 5.26123 5.91086 5.26123C5.38831 5.26123 4.88716 5.05609 4.51766 4.69095C4.14816 4.32581 3.94057 3.83058 3.94057 3.31419ZM1.3595 10.4533C1.51565 9.3704 2.06195 8.3795 2.89806 7.66265C3.73416 6.9458 4.80393 6.55112 5.91086 6.55112C7.01779 6.55112 8.08756 6.9458 8.92366 7.66265C9.75977 8.3795 10.3061 9.3704 10.4622 10.4533H1.3595Z" fill="#2A2554"/>
<path d="M21.6734 11.7514H32.1816C32.3557 11.7514 32.5228 11.683 32.646 11.5613C32.7691 11.4395 32.8383 11.2745 32.8383 11.1023C32.8382 9.93954 32.4868 8.80326 31.8293 7.83897C31.1717 6.87468 30.2379 6.12627 29.1473 5.68958C29.6348 5.24766 29.9759 4.67055 30.1258 4.03384C30.2758 3.39714 30.2276 2.73052 29.9877 2.12131C29.7477 1.5121 29.3272 0.988707 28.7811 0.619686C28.2351 0.250664 27.589 0.0532227 26.9275 0.0532227C26.2659 0.0532227 25.6198 0.250664 25.0738 0.619686C24.5277 0.988707 24.1072 1.5121 23.8673 2.12131C23.6273 2.73052 23.5792 3.39714 23.7291 4.03384C23.8791 4.67055 24.2201 5.24766 24.7076 5.68958C23.6171 6.12627 22.6832 6.87468 22.0257 7.83897C21.3681 8.80326 21.0168 9.93954 21.0166 11.1023C21.0166 11.2745 21.0858 11.4395 21.209 11.5613C21.3321 11.683 21.4992 11.7514 21.6734 11.7514ZM24.9572 3.31419C24.9572 2.9291 25.0727 2.55266 25.2892 2.23247C25.5057 1.91229 25.8134 1.66273 26.1735 1.51536C26.5335 1.368 26.9296 1.32944 27.3118 1.40457C27.694 1.47969 28.0451 1.66513 28.3207 1.93743C28.5962 2.20973 28.7839 2.55665 28.8599 2.93434C28.9359 3.31203 28.8969 3.70352 28.7478 4.05929C28.5986 4.41506 28.3461 4.71915 28.0221 4.93309C27.6981 5.14704 27.3171 5.26123 26.9275 5.26123C26.4049 5.26123 25.9038 5.05609 25.5343 4.69095C25.1648 4.32581 24.9572 3.83058 24.9572 3.31419ZM26.9275 6.55925C28.0332 6.55897 29.1019 6.9525 29.9379 7.66771C30.7738 8.38291 31.3209 9.37188 31.4788 10.4533H22.3761C22.5341 9.37188 23.0811 8.38291 23.9171 7.66771C24.753 6.9525 25.8218 6.55897 26.9275 6.55925Z" fill="#2A2554"/>
<path d="M19.0461 5.26123H13.792C13.6178 5.26123 13.4508 5.32961 13.3276 5.45133C13.2044 5.57305 13.1353 5.73813 13.1353 5.91026C13.1353 6.0824 13.2044 6.24748 13.3276 6.3692C13.4508 6.49092 13.6178 6.5593 13.792 6.5593H19.0461C19.2203 6.5593 19.3873 6.49092 19.5105 6.3692C19.6337 6.24748 19.7029 6.0824 19.7029 5.91026C19.7029 5.73813 19.6337 5.57305 19.5105 5.45133C19.3873 5.32961 19.2203 5.26123 19.0461 5.26123Z" fill="#2A2554"/>
<path d="M19.0461 26.0298H13.792C13.6178 26.0298 13.4508 26.0982 13.3276 26.2199C13.2044 26.3416 13.1353 26.5067 13.1353 26.6788C13.1353 26.8509 13.2044 27.016 13.3276 27.1377C13.4508 27.2594 13.6178 27.3278 13.792 27.3278H19.0461C19.2203 27.3278 19.3873 27.2594 19.5105 27.1377C19.6337 27.016 19.7029 26.8509 19.7029 26.6788C19.7029 26.5067 19.6337 26.3416 19.5105 26.2199C19.3873 26.0982 19.2203 26.0298 19.0461 26.0298Z" fill="#2A2554"/>
<path d="M26.2705 13.6983V18.8904C26.2705 19.0625 26.3397 19.2276 26.4629 19.3493C26.586 19.471 26.7531 19.5394 26.9273 19.5394C27.1015 19.5394 27.2685 19.471 27.3917 19.3493C27.5148 19.2276 27.584 19.0625 27.584 18.8904V13.6983C27.584 13.5262 27.5148 13.3611 27.3917 13.2394C27.2685 13.1177 27.1015 13.0493 26.9273 13.0493C26.7531 13.0493 26.586 13.1177 26.4629 13.2394C26.3397 13.3611 26.2705 13.5262 26.2705 13.6983Z" fill="#2A2554"/>
<path d="M6.56743 18.8904V13.6983C6.56743 13.5262 6.49824 13.3611 6.37507 13.2394C6.2519 13.1177 6.08485 13.0493 5.91067 13.0493C5.73648 13.0493 5.56943 13.1177 5.44627 13.2394C5.3231 13.3611 5.25391 13.5262 5.25391 13.6983V18.8904C5.25391 19.0625 5.3231 19.2276 5.44627 19.3493C5.56943 19.471 5.73648 19.5394 5.91067 19.5394C6.08485 19.5394 6.2519 19.471 6.37507 19.3493C6.49824 19.2276 6.56743 19.0625 6.56743 18.8904Z" fill="#2A2554"/>
</svg>
