<svg width="40" height="40" viewBox="0 0 40 40" fill="none" xmlns="http://www.w3.org/2000/svg">
<path d="M38.0648 7.65039H9.67767C9.16435 7.65039 8.67205 7.8519 8.30908 8.21059C7.9461 8.56928 7.74219 9.05577 7.74219 9.56303V13.3883C7.74219 13.8956 7.9461 14.3821 8.30908 14.7408C8.67205 15.0995 9.16435 15.301 9.67767 15.301H10.968V38.8902C10.968 39.0122 11.0034 39.1315 11.07 39.2342C11.1366 39.3369 11.2316 39.4185 11.3437 39.4694C11.4558 39.5204 11.5803 39.5385 11.7025 39.5216C11.8247 39.5047 11.9395 39.4535 12.0332 39.3741L16.0977 35.9314L19.5461 39.339C19.667 39.4586 19.8311 39.5257 20.0022 39.5257C20.1733 39.5257 20.3373 39.4586 20.4583 39.339L23.8712 35.9658L27.2861 39.3403C27.407 39.4598 27.5711 39.527 27.7422 39.527C27.9133 39.527 28.0773 39.4598 28.1983 39.3403L31.6473 35.9326L35.7119 39.3754C35.8057 39.4541 35.9203 39.5046 36.0422 39.521C36.1641 39.5374 36.2882 39.519 36.3999 39.468C36.5116 39.417 36.6062 39.3355 36.6725 39.2332C36.7389 39.1308 36.7743 39.0118 36.7744 38.8902V15.301H38.0648C38.5781 15.301 39.0704 15.0995 39.4334 14.7408C39.7963 14.3821 40.0002 13.8956 40.0002 13.3883V9.56303C40.0002 9.05577 39.7963 8.56928 39.4334 8.21059C39.0704 7.8519 38.5781 7.65039 38.0648 7.65039ZM32.9035 31.2396H14.839C14.6679 31.2396 14.5038 31.1725 14.3828 31.0529C14.2618 30.9333 14.1938 30.7712 14.1938 30.6021C14.1938 30.433 14.2618 30.2708 14.3828 30.1513C14.5038 30.0317 14.6679 29.9646 14.839 29.9646H32.9035C33.0746 29.9646 33.2387 30.0317 33.3597 30.1513C33.4807 30.2708 33.5486 30.433 33.5486 30.6021C33.5486 30.7712 33.4807 30.9333 33.3597 31.0529C33.2387 31.1725 33.0746 31.2396 32.9035 31.2396ZM32.9035 26.7768H14.839C14.6679 26.7768 14.5038 26.7096 14.3828 26.5901C14.2618 26.4705 14.1938 26.3084 14.1938 26.1393C14.1938 25.9702 14.2618 25.808 14.3828 25.6885C14.5038 25.5689 14.6679 25.5017 14.839 25.5017H32.9035C33.0746 25.5017 33.2387 25.5689 33.3597 25.6885C33.4807 25.808 33.5486 25.9702 33.5486 26.1393C33.5486 26.3084 33.4807 26.4705 33.3597 26.5901C33.2387 26.7096 33.0746 26.7768 32.9035 26.7768ZM32.9035 22.314H14.839C14.6679 22.314 14.5038 22.2468 14.3828 22.1272C14.2618 22.0077 14.1938 21.8455 14.1938 21.6764C14.1938 21.5073 14.2618 21.3452 14.3828 21.2256C14.5038 21.1061 14.6679 21.0389 14.839 21.0389H32.9035C33.0746 21.0389 33.2387 21.1061 33.3597 21.2256C33.4807 21.3452 33.5486 21.5073 33.5486 21.6764C33.5486 21.8455 33.4807 22.0077 33.3597 22.1272C33.2387 22.2468 33.0746 22.314 32.9035 22.314ZM32.9035 17.8511H14.839C14.6679 17.8511 14.5038 17.784 14.3828 17.6644C14.2618 17.5449 14.1938 17.3827 14.1938 17.2136C14.1938 17.0445 14.2618 16.8824 14.3828 16.7628C14.5038 16.6432 14.6679 16.5761 14.839 16.5761H32.9035C33.0746 16.5761 33.2387 16.6432 33.3597 16.7628C33.4807 16.8824 33.5486 17.0445 33.5486 17.2136C33.5486 17.3827 33.4807 17.5449 33.3597 17.6644C33.2387 17.784 33.0746 17.8511 32.9035 17.8511ZM38.7099 13.3883C38.7099 13.5574 38.642 13.7196 38.521 13.8391C38.4 13.9587 38.2359 14.0259 38.0648 14.0259H36.7744V11.4757C36.7744 11.3066 36.7065 11.1444 36.5855 11.0249C36.4645 10.9053 36.3004 10.8381 36.1293 10.8381H11.6132C11.442 10.8381 11.2779 10.9053 11.157 11.0249C11.036 11.1444 10.968 11.3066 10.968 11.4757V14.0259H9.67767C9.50656 14.0259 9.34246 13.9587 9.22147 13.8391C9.10048 13.7196 9.03251 13.5574 9.03251 13.3883V9.56303C9.03251 9.39394 9.10048 9.23178 9.22147 9.11222C9.34246 8.99266 9.50656 8.92549 9.67767 8.92549H38.0648C38.2359 8.92549 38.4 8.99266 38.521 9.11222C38.642 9.23178 38.7099 9.39394 38.7099 9.56303V13.3883Z" fill="#0756BB" fill-opacity="0.45"/>
<path d="M25.1612 0H4.51612C3.31879 0.00134992 2.17089 0.471974 1.32425 1.30863C0.477609 2.14528 0.00136604 3.27963 0 4.46284V29.3272C0 29.8345 0.203916 30.321 0.566889 30.6797C0.929862 31.0384 1.42216 31.2399 1.93548 31.2399H20C20.5133 31.2399 21.0056 31.0384 21.3686 30.6797C21.7315 30.321 21.9354 29.8345 21.9354 29.3272V21.0391H27.0967C27.7812 21.0391 28.4376 20.7704 28.9215 20.2922C29.4055 19.8139 29.6774 19.1653 29.6774 18.4889V4.46284C29.676 3.27963 29.1998 2.14528 28.3531 1.30863C27.5065 0.471974 26.3586 0.00134992 25.1612 0ZM20.6451 4.46284V29.3272C20.6451 29.4963 20.5772 29.6585 20.4562 29.778C20.3352 29.8976 20.1711 29.9648 20 29.9648H1.93548C1.76437 29.9648 1.60027 29.8976 1.47928 29.778C1.35829 29.6585 1.29032 29.4963 1.29032 29.3272V4.46284C1.29134 3.61771 1.63153 2.80748 2.23627 2.20988C2.841 1.61228 3.6609 1.27611 4.51612 1.2751H22C21.5703 1.69024 21.2291 2.18616 20.9965 2.73363C20.7638 3.28109 20.6443 3.86904 20.6451 4.46284ZM21.9354 19.764V12.1134H23.8709C24.042 12.1134 24.2061 12.1806 24.3271 12.3002C24.4481 12.4197 24.5161 12.5819 24.5161 12.751V18.4889C24.5188 18.9379 24.6426 19.3781 24.8748 19.764H21.9354ZM28.387 18.4889C28.387 18.8271 28.2511 19.1514 28.0091 19.3905C27.7671 19.6297 27.4389 19.764 27.0967 19.764C26.7545 19.764 26.4263 19.6297 26.1843 19.3905C25.9424 19.1514 25.8064 18.8271 25.8064 18.4889V12.751C25.8064 12.2437 25.6025 11.7572 25.2395 11.3985C24.8765 11.0398 24.3842 10.8383 23.8709 10.8383H21.9354V4.46284C21.9354 3.6174 22.2753 2.80658 22.8803 2.20876C23.4852 1.61095 24.3057 1.2751 25.1612 1.2751C26.0168 1.2751 26.8373 1.61095 27.4422 2.20876C28.0472 2.80658 28.387 3.6174 28.387 4.46284V18.4889Z" fill="#2A2554"/>
<path d="M7.08967 19.1172C6.94128 19.0655 6.78903 19.0101 6.63806 18.954V16.4535C6.84487 16.5117 7.03862 16.6082 7.20902 16.7379C7.33597 16.8482 7.50165 16.9048 7.67044 16.8957C7.83922 16.8865 7.99763 16.8122 8.11158 16.6889C8.22553 16.5655 8.28593 16.4028 8.27978 16.2359C8.27363 16.0689 8.20143 15.9111 8.0787 15.7962C7.66317 15.4615 7.16671 15.2394 6.63806 15.1516V14.6639C6.63806 14.4948 6.57009 14.3327 6.4491 14.2131C6.32811 14.0935 6.16401 14.0264 5.9929 14.0264C5.82179 14.0264 5.6577 14.0935 5.53671 14.2131C5.41571 14.3327 5.34774 14.4948 5.34774 14.6639V15.2014C5.27871 15.2179 5.21549 15.2218 5.14452 15.2428C4.72533 15.3733 4.35059 15.6153 4.06142 15.9423C3.77224 16.2694 3.57979 16.6688 3.50517 17.0968C3.41931 17.47 3.43876 17.8593 3.56139 18.2223C3.68403 18.5853 3.90515 18.9081 4.20065 19.1554C4.55487 19.4185 4.94004 19.6381 5.34774 19.8095V23.0425C4.94014 23.0011 4.55164 22.8508 4.22388 22.6077C4.15299 22.5604 4.07328 22.5276 3.98941 22.511C3.90554 22.4944 3.81917 22.4945 3.73533 22.5112C3.65148 22.5279 3.57184 22.561 3.50104 22.6084C3.43023 22.6558 3.36967 22.7166 3.32287 22.7874C3.27608 22.8581 3.244 22.9374 3.22848 23.0205C3.21296 23.1036 3.21433 23.189 3.23249 23.2716C3.25065 23.3542 3.28526 23.4324 3.33429 23.5016C3.38331 23.5709 3.44579 23.6298 3.51808 23.675C4.05279 24.0598 4.68753 24.2859 5.34774 24.3266V24.8647C5.34774 25.0337 5.41571 25.1959 5.53671 25.3155C5.6577 25.435 5.82179 25.5022 5.9929 25.5022C6.16401 25.5022 6.32811 25.435 6.4491 25.3155C6.57009 25.1959 6.63806 25.0337 6.63806 24.8647V24.2647C7.18921 24.1346 7.68978 23.848 8.07807 23.4402C8.46636 23.0323 8.72538 22.5211 8.82321 21.9696C8.94118 21.3665 8.82943 20.7417 8.50943 20.2152C8.18944 19.6886 7.68378 19.2976 7.08967 19.1172ZM5.34774 18.377C5.22604 18.3097 5.109 18.2346 4.99742 18.1519C4.89024 18.0471 4.8131 17.916 4.77389 17.7721C4.73468 17.6282 4.73478 17.4765 4.7742 17.3327C4.80526 17.1679 4.87285 17.0119 4.97213 16.876C5.0714 16.7401 5.1999 16.6276 5.34839 16.5466L5.34774 18.377ZM7.55096 21.756C7.50723 22.0107 7.40121 22.251 7.24211 22.456C7.08301 22.661 6.87565 22.8245 6.63806 22.9323V20.3119L6.65935 20.3196C6.96329 20.4042 7.22371 20.5991 7.38853 20.8653C7.55335 21.1315 7.61044 21.4494 7.54838 21.7553L7.55096 21.756Z" fill="#2A2554"/>
<path d="M18.0643 10.8384H3.87075C3.69964 10.8384 3.53554 10.9056 3.41455 11.0251C3.29356 11.1447 3.22559 11.3069 3.22559 11.476C3.22559 11.645 3.29356 11.8072 3.41455 11.9268C3.53554 12.0464 3.69964 12.1135 3.87075 12.1135H18.0643C18.2354 12.1135 18.3995 12.0464 18.5205 11.9268C18.6415 11.8072 18.7095 11.645 18.7095 11.476C18.7095 11.3069 18.6415 11.1447 18.5205 11.0251C18.3995 10.9056 18.2354 10.8384 18.0643 10.8384Z" fill="#2A2554"/>
<path d="M18.0646 15.3013H11.6129C11.4418 15.3013 11.2777 15.3684 11.1567 15.488C11.0357 15.6076 10.9678 15.7697 10.9678 15.9388C10.9678 16.1079 11.0357 16.2701 11.1567 16.3897C11.2777 16.5092 11.4418 16.5764 11.6129 16.5764H18.0646C18.2357 16.5764 18.3998 16.5092 18.5208 16.3897C18.6417 16.2701 18.7097 16.1079 18.7097 15.9388C18.7097 15.7697 18.6417 15.6076 18.5208 15.488C18.3998 15.3684 18.2357 15.3013 18.0646 15.3013Z" fill="#2A2554"/>
<path d="M18.0646 19.7642H11.6129C11.4418 19.7642 11.2777 19.8313 11.1567 19.9509C11.0357 20.0704 10.9678 20.2326 10.9678 20.4017C10.9678 20.5708 11.0357 20.7329 11.1567 20.8525C11.2777 20.972 11.4418 21.0392 11.6129 21.0392H18.0646C18.2357 21.0392 18.3998 20.972 18.5208 20.8525C18.6417 20.7329 18.7097 20.5708 18.7097 20.4017C18.7097 20.2326 18.6417 20.0704 18.5208 19.9509C18.3998 19.8313 18.2357 19.7642 18.0646 19.7642Z" fill="#2A2554"/>
<path d="M18.0646 24.2266H11.6129C11.4418 24.2266 11.2777 24.2937 11.1567 24.4133C11.0357 24.5329 10.9678 24.695 10.9678 24.8641C10.9678 25.0332 11.0357 25.1954 11.1567 25.315C11.2777 25.4345 11.4418 25.5017 11.6129 25.5017H18.0646C18.2357 25.5017 18.3998 25.4345 18.5208 25.315C18.6417 25.1954 18.7097 25.0332 18.7097 24.8641C18.7097 24.695 18.6417 24.5329 18.5208 24.4133C18.3998 24.2937 18.2357 24.2266 18.0646 24.2266Z" fill="#2A2554"/>
<path d="M18.0643 6.37549H3.87075C3.69964 6.37549 3.53554 6.44265 3.41455 6.56221C3.29356 6.68177 3.22559 6.84392 3.22559 7.013C3.22559 7.18208 3.29356 7.34423 3.41455 7.46379C3.53554 7.58335 3.69964 7.65051 3.87075 7.65051H18.0643C18.2354 7.65051 18.3995 7.58335 18.5205 7.46379C18.6415 7.34423 18.7095 7.18208 18.7095 7.013C18.7095 6.84392 18.6415 6.68177 18.5205 6.56221C18.3995 6.44265 18.2354 6.37549 18.0643 6.37549Z" fill="#2A2554"/>
</svg>
