<svg width="40" height="40" viewBox="0 0 40 40" fill="none" xmlns="http://www.w3.org/2000/svg">
<path d="M39.6494 20.271C39.6188 20.1281 39.5394 19.9998 39.4245 19.9078C39.3097 19.8157 39.1663 19.7655 39.0184 19.7654H36.8408C36.5767 18.8868 36.221 18.0377 35.7795 17.2316L37.317 15.7129C37.4215 15.6096 37.4869 15.4739 37.5023 15.3286C37.5177 15.1833 37.4821 15.0371 37.4015 14.9146C36.1684 13.0375 34.5497 11.4376 32.6502 10.2188C32.5262 10.139 32.3782 10.1037 32.231 10.1189C32.0839 10.1341 31.9464 10.1989 31.8418 10.3023L30.3082 11.8211C29.492 11.3862 28.6325 11.0358 27.7435 10.7754V8.62356C27.7434 8.47742 27.6926 8.33573 27.5994 8.22221C27.5063 8.1087 27.3765 8.03025 27.2318 7.99999C25.0167 7.53646 22.7278 7.53646 20.5127 7.99999C20.368 8.03025 20.2382 8.1087 20.1451 8.22221C20.0519 8.33573 20.0011 8.47742 20.001 8.62356V10.7754C19.1121 11.0369 18.2529 11.3884 17.437 11.8243L15.9001 10.3049C15.7955 10.2014 15.6581 10.1367 15.5109 10.1215C15.3637 10.1063 15.2157 10.1415 15.0917 10.2214C13.1923 11.4401 11.5735 13.04 10.3404 14.9172C10.2598 15.0397 10.2242 15.1858 10.2396 15.3311C10.255 15.4764 10.3204 15.6121 10.4249 15.7155L11.9625 17.2342C11.5222 18.0396 11.1674 18.8879 10.9037 19.7654H8.72612C8.57823 19.7655 8.43485 19.8157 8.31998 19.9078C8.20511 19.9998 8.12572 20.1281 8.09511 20.271C7.62455 22.4599 7.62455 24.722 8.09511 26.9109C8.12572 27.0539 8.20511 27.1821 8.31998 27.2742C8.43485 27.3662 8.57823 27.4164 8.72612 27.4165H10.9037C11.1678 28.2951 11.5235 29.1442 11.965 29.9503L10.4275 31.469C10.323 31.5724 10.2576 31.708 10.2422 31.8534C10.2268 31.9987 10.2624 32.1448 10.343 32.2673C11.5761 34.1444 13.1949 35.7443 15.0943 36.9631C15.2183 37.0429 15.3663 37.0782 15.5135 37.063C15.6607 37.0478 15.7981 36.983 15.9027 36.8796L17.4396 35.3602C18.2548 35.795 19.1131 36.1456 20.001 36.4065V38.5558C20.0011 38.702 20.0519 38.8437 20.1451 38.9572C20.2382 39.0707 20.368 39.1491 20.5127 39.1794C22.7277 39.6444 25.0168 39.6444 27.2318 39.1794C27.3761 39.1492 27.5055 39.0711 27.5986 38.9582C27.6917 38.8452 27.7428 38.7041 27.7435 38.5584V36.4065C28.6324 36.145 29.4916 35.7935 30.3075 35.3577L31.8444 36.877C31.949 36.9805 32.0864 37.0452 32.2336 37.0604C32.3808 37.0756 32.5288 37.0404 32.6528 36.9606C34.5522 35.7418 36.171 34.1419 37.4041 32.2647C37.4847 32.1422 37.5203 31.9961 37.5049 31.8508C37.4895 31.7055 37.4241 31.5698 37.3196 31.4665L35.7821 29.9477C36.2223 29.1423 36.5771 28.294 36.8408 27.4165H39.0158C39.1637 27.4164 39.3071 27.3662 39.422 27.2742C39.5368 27.1821 39.6162 27.0539 39.6468 26.9109C40.1174 24.722 40.1174 22.4599 39.6468 20.271H39.6494ZM23.8723 30.6044C22.4686 30.6044 21.0964 30.1931 19.9292 29.4225C18.7621 28.6518 17.8524 27.5565 17.3153 26.2749C16.7781 24.9934 16.6376 23.5832 16.9114 22.2227C17.1852 20.8622 17.8612 19.6125 18.8538 18.6317C19.8463 17.6508 21.1109 16.9829 22.4877 16.7122C23.8644 16.4416 25.2914 16.5805 26.5883 17.1114C27.8851 17.6422 28.9935 18.5411 29.7734 19.6945C30.5532 20.8478 30.9695 22.2038 30.9695 23.591C30.9673 25.4504 30.2188 27.233 28.8883 28.5478C27.5578 29.8626 25.7539 30.6023 23.8723 30.6044Z" fill="#0756BB" fill-opacity="0.45"/>
<path d="M31.2278 0.127518L21.9369 7.01347V0.637588C21.9369 0.519181 21.9035 0.403112 21.8405 0.302388C21.7775 0.201665 21.6874 0.120266 21.5802 0.0673122C21.4731 0.0143587 21.3531 -0.00805708 21.2337 0.0025766C21.1144 0.0132103 21.0004 0.0564733 20.9046 0.127518L11.6136 7.01347V0.637588C11.6136 0.519181 11.5803 0.403112 11.5173 0.302388C11.4543 0.201665 11.3642 0.120266 11.257 0.0673122C11.1498 0.0143587 11.0298 -0.00805708 10.9105 0.0025766C10.7912 0.0132103 10.6772 0.0564733 10.5813 0.127518L0.258081 7.77857C0.177949 7.83796 0.112911 7.91497 0.0681159 8.0035C0.0233209 8.09204 0 8.18966 0 8.28864V29.9666C0 30.4739 0.20393 30.9604 0.566926 31.3192C0.929923 31.6779 1.42225 31.8794 1.93561 31.8794H30.3245C30.8379 31.8794 31.3302 31.6779 31.6932 31.3192C32.0562 30.9604 32.2601 30.4739 32.2601 29.9666V0.637588C32.2601 0.519181 32.2268 0.403112 32.1638 0.302388C32.1008 0.201665 32.0106 0.120266 31.9035 0.0673122C31.7963 0.0143587 31.6763 -0.00805708 31.557 0.0025766C31.4376 0.0132103 31.3237 0.0564733 31.2278 0.127518ZM30.9697 29.9666C30.9697 30.1357 30.9018 30.2979 30.7808 30.4175C30.6598 30.537 30.4956 30.6042 30.3245 30.6042H1.93561C1.76449 30.6042 1.60038 30.537 1.47938 30.4175C1.35838 30.2979 1.29041 30.1357 1.29041 29.9666V8.60744L10.3232 1.91276V8.28864C10.3232 8.40705 10.3566 8.52312 10.4196 8.62384C10.4826 8.72457 10.5727 8.80597 10.6799 8.85892C10.7871 8.91187 10.9071 8.93429 11.0264 8.92365C11.1457 8.91302 11.2597 8.86976 11.3556 8.79871L20.6465 1.91276V8.28864C20.6465 8.40705 20.6799 8.52312 20.7428 8.62384C20.8058 8.72457 20.896 8.80597 21.0031 8.85892C21.1103 8.91187 21.2303 8.93429 21.3496 8.92365C21.469 8.91302 21.583 8.86976 21.6788 8.79871L30.9697 1.91276V29.9666Z" fill="#2A2554"/>
<path d="M5.16211 12.1142V26.7787C5.16211 26.9478 5.23009 27.1099 5.35108 27.2295C5.47208 27.3491 5.63619 27.4163 5.80731 27.4163H26.4538C26.6249 27.4163 26.789 27.3491 26.91 27.2295C27.031 27.1099 27.099 26.9478 27.099 26.7787V12.1142C27.099 11.9451 27.031 11.7829 26.91 11.6633C26.789 11.5437 26.6249 11.4766 26.4538 11.4766H5.80731C5.63619 11.4766 5.47208 11.5437 5.35108 11.6633C5.23009 11.7829 5.16211 11.9451 5.16211 12.1142ZM20.647 12.7517H25.8086V26.1411H20.647V12.7517ZM12.9045 12.7517H19.3566V26.1411H12.9045V12.7517ZM6.45251 12.7517H11.6141V26.1411H6.45251V12.7517Z" fill="#2A2554"/>
</svg>
