<svg width="40" height="41" viewBox="0 0 40 41" fill="none" xmlns="http://www.w3.org/2000/svg">
<path d="M25.5732 28.5127C27.0218 28.5127 28.1962 27.3522 28.1962 25.9207C28.1962 24.4891 27.0218 23.3286 25.5732 23.3286C24.1245 23.3286 22.9502 24.4891 22.9502 25.9207C22.9502 27.3522 24.1245 28.5127 25.5732 28.5127Z" fill="#0756BB" fill-opacity="0.45"/>
<path d="M25.5735 11.6641C22.7202 11.6641 19.931 12.5002 17.5585 14.0667C15.1861 15.6332 13.337 17.8597 12.2451 20.4647C11.1532 23.0697 10.8675 25.9361 11.4242 28.7016C11.9808 31.467 13.3548 34.0072 15.3724 36.001C17.39 37.9948 19.9605 39.3526 22.759 39.9026C25.5575 40.4527 28.4582 40.1704 31.0943 39.0914C33.7304 38.0124 35.9835 36.1851 37.5687 33.8407C39.1539 31.4962 40 28.7399 40 25.9203C40 22.1393 38.4801 18.5132 35.7746 15.8396C33.0691 13.1661 29.3996 11.6641 25.5735 11.6641ZM19.0816 33.2493C18.9587 33.37 18.7925 33.4378 18.6193 33.4378C18.446 33.4378 18.2798 33.37 18.157 33.2493C16.6906 31.7993 15.6921 29.9523 15.2877 27.9417C14.8832 25.9311 15.091 23.8472 15.8847 21.9532C16.6784 20.0593 18.0225 18.4404 19.747 17.301C21.4715 16.1617 23.4991 15.5531 25.5735 15.5521C25.6853 15.5525 25.7951 15.581 25.8926 15.6351C25.99 15.6892 26.0719 15.767 26.1304 15.8612C26.1889 15.9553 26.222 16.0627 26.2267 16.173C26.2314 16.2834 26.2074 16.3931 26.1571 16.4917L24.1899 20.3798C24.1552 20.4621 24.1037 20.5364 24.0387 20.5981C23.9736 20.6598 23.8964 20.7076 23.8118 20.7385C23.7273 20.7694 23.6371 20.7827 23.5471 20.7777C23.4571 20.7726 23.3691 20.7492 23.2886 20.709C23.2081 20.6688 23.1369 20.6126 23.0794 20.544C23.0219 20.4753 22.9793 20.3957 22.9544 20.3101C22.9294 20.2245 22.9226 20.1347 22.9343 20.0463C22.9461 19.958 22.9761 19.873 23.0226 19.7966L24.4784 16.913C22.7682 17.1159 21.1504 17.7901 19.8096 18.8587C18.4689 19.9272 17.4594 21.3469 16.8965 22.9555C16.3336 24.5642 16.24 26.2968 16.6264 27.9556C17.0128 29.6143 17.8636 31.1321 19.0816 32.3356C19.2037 32.457 19.2722 32.6213 19.2722 32.7925C19.2722 32.9637 19.2037 33.1279 19.0816 33.2493ZM21.639 25.9203C21.639 25.1513 21.8697 24.3996 22.3021 23.7602C22.7344 23.1208 23.3489 22.6225 24.0678 22.3282C24.7868 22.0339 25.5779 21.9569 26.3411 22.107C27.1043 22.257 27.8054 22.6273 28.3556 23.171C28.9059 23.7148 29.2806 24.4076 29.4324 25.1618C29.5842 25.916 29.5063 26.6978 29.2085 27.4082C28.9107 28.1187 28.4064 28.7259 27.7594 29.1531C27.1124 29.5804 26.3517 29.8084 25.5735 29.8084C24.53 29.8084 23.5292 29.3988 22.7914 28.6696C22.0535 27.9404 21.639 26.9515 21.639 25.9203ZM32.99 33.2493C32.0193 34.2163 30.8637 34.9829 29.5905 35.5047C28.3173 36.0264 26.9518 36.2929 25.5735 36.2885C25.4617 36.2882 25.3519 36.2596 25.2544 36.2055C25.1569 36.1514 25.0751 36.0736 25.0166 35.9795C24.9581 35.8853 24.925 35.778 24.9203 35.6676C24.9156 35.5572 24.9396 35.4475 24.9899 35.3489L26.9571 31.4608C27.0425 31.3206 27.1784 31.2175 27.3375 31.1722C27.4966 31.1269 27.6671 31.1428 27.8149 31.2166C27.9626 31.2904 28.0767 31.4168 28.1341 31.5703C28.1915 31.7237 28.188 31.893 28.1244 32.044L26.6686 34.9277C28.3787 34.7247 29.9966 34.0505 31.3373 32.982C32.6781 31.9134 33.6876 30.4937 34.2505 28.8851C34.8134 27.2765 34.907 25.5438 34.5206 23.8851C34.1342 22.2264 33.2834 20.7085 32.0654 19.505C31.958 19.381 31.9019 19.2216 31.9082 19.0585C31.9146 18.8954 31.983 18.7407 32.0998 18.6253C32.2166 18.5099 32.3731 18.4423 32.5382 18.436C32.7032 18.4297 32.8646 18.4851 32.99 18.5913C34.9562 20.5355 36.0606 23.1717 36.0606 25.9203C36.0606 28.669 34.9562 31.3051 32.99 33.2493Z" fill="#0756BB" fill-opacity="0.45"/>
<path d="M17.7045 32.4006H13.4028C12.8495 32.3989 12.319 32.1828 11.9254 31.7987C11.5317 31.4145 11.3064 30.893 11.2978 30.3464V28.1885L7.21249 25.8557L5.31082 26.9119C4.82825 27.1798 4.25832 27.2491 3.72444 27.1048C3.19056 26.9604 2.73569 26.6141 2.45831 26.1408L0.28122 22.4601C0.00497868 21.9856 -0.0714616 21.4227 0.0683818 20.893C0.208225 20.3632 0.553149 19.909 1.02877 19.6283L2.90422 18.5332V13.8675L1.02877 12.7724C0.553149 12.4916 0.208225 12.0374 0.0683818 11.5077C-0.0714616 10.9779 0.00497868 10.4151 0.28122 9.94056L2.43208 6.25987C2.70946 5.78654 3.16433 5.44022 3.69821 5.29589C4.23209 5.15157 4.80202 5.22085 5.28459 5.48873L7.18626 6.54499L11.2716 4.21216V2.05428C11.2802 1.50314 11.5092 0.977758 11.9085 0.592879C12.3078 0.208 12.845 -0.00510856 13.4028 9.30314e-05H17.7045C18.2577 0.00172501 18.7882 0.21786 19.1819 0.602011C19.5755 0.986162 19.8008 1.50764 19.8094 2.05428V4.21216L23.9341 6.54499L25.8358 5.48873C26.3193 5.22053 26.8903 5.15107 27.4252 5.29536C27.9602 5.43964 28.4162 5.78609 28.6948 6.25987L30.8457 9.94056C31.1197 10.4163 31.1941 10.9791 31.0532 11.5085C30.9122 12.0378 30.567 12.4915 30.0916 12.7724L28.1965 13.8675V18.5332L30.0719 19.6283C30.5474 19.9091 30.8925 20.3629 31.0335 20.8922C31.1745 21.4215 31.1 21.9844 30.826 22.4601L28.6752 26.1408C28.3965 26.6146 27.9405 26.961 27.4055 27.1053C26.8706 27.2496 26.2997 27.1801 25.8161 26.9119L23.9341 25.8557L19.8553 28.1885V30.3464C19.8511 30.621 19.792 30.892 19.6815 31.144C19.571 31.396 19.4113 31.6239 19.2115 31.8147C19.0116 32.0056 18.7757 32.1556 18.5171 32.2561C18.2585 32.3566 17.9823 32.4057 17.7045 32.4006ZM7.54037 24.5532L12.2683 27.2489C12.3674 27.3054 12.4498 27.3866 12.5074 27.4844C12.5649 27.5822 12.5955 27.6931 12.5962 27.8062L12.629 30.3269C12.6306 30.5304 12.7123 30.7254 12.8567 30.8705C13.0011 31.0156 13.1969 31.0995 13.4028 31.1046H17.7045C17.9133 31.1029 18.1131 31.0206 18.2614 30.8753C18.4096 30.7301 18.4945 30.5332 18.4979 30.3269V27.8062C18.4986 27.6931 18.5293 27.5822 18.5868 27.4844C18.6443 27.3866 18.7267 27.3054 18.8258 27.2489L23.5603 24.5532C23.66 24.4963 23.7731 24.4664 23.8882 24.4664C24.0033 24.4664 24.1164 24.4963 24.2161 24.5532L26.4391 25.7909C26.6221 25.8922 26.838 25.9183 27.0404 25.8638C27.2428 25.8093 27.4154 25.6783 27.5211 25.4993L29.6719 21.8186C29.7808 21.6397 29.8136 21.4255 29.7632 21.2227C29.7129 21.02 29.5834 20.8452 29.4031 20.7364L27.2129 19.4404C27.115 19.383 27.0339 19.3015 26.9775 19.2038C26.9212 19.1061 26.8916 18.9956 26.8915 18.8831V13.4981C26.8949 13.389 26.9261 13.2825 26.9823 13.1884C27.0385 13.0944 27.1178 13.0159 27.2129 12.9603L29.4096 11.6643C29.5897 11.5588 29.7208 11.3878 29.7747 11.1879C29.8287 10.988 29.8012 10.7751 29.6981 10.595L27.5407 6.90788C27.4351 6.7288 27.2625 6.59789 27.0601 6.54335C26.8577 6.48881 26.6418 6.515 26.4587 6.61627L24.2357 7.85397C24.1361 7.91084 24.023 7.94079 23.9079 7.94079C23.7928 7.94079 23.6797 7.91084 23.58 7.85397L18.852 5.18417C18.7529 5.12763 18.6705 5.04644 18.613 4.94867C18.5555 4.85091 18.5249 4.73997 18.5242 4.62688V2.10612C18.5269 1.99902 18.5075 1.8925 18.4673 1.79302C18.427 1.69354 18.3668 1.60317 18.2901 1.52742C18.2134 1.45167 18.122 1.3921 18.0213 1.35234C17.9207 1.31257 17.8129 1.29344 17.7045 1.29611H13.4028C13.1935 1.29611 12.9926 1.37782 12.844 1.52347C12.6954 1.66912 12.611 1.86689 12.6093 2.07372L12.5765 4.59448C12.5758 4.70757 12.5452 4.81851 12.4877 4.91627C12.4302 5.01404 12.3478 5.09523 12.2486 5.15177L7.54037 7.84749C7.44068 7.90436 7.3276 7.93431 7.21249 7.93431C7.09738 7.93431 6.9843 7.90436 6.88462 7.84749L4.65507 6.60979C4.47304 6.50883 4.25807 6.48283 4.05677 6.53741C3.85547 6.59199 3.68404 6.72277 3.57964 6.9014L1.41567 10.5886C1.31002 10.7685 1.28037 10.9823 1.33315 11.1836C1.38593 11.385 1.51689 11.5577 1.69764 11.6643L3.8944 12.9603C3.99229 13.0176 4.07339 13.0992 4.12972 13.1969C4.18606 13.2946 4.2157 13.4051 4.21572 13.5176V18.922C4.2157 19.0344 4.18606 19.1449 4.12972 19.2427C4.07339 19.3404 3.99229 19.4219 3.8944 19.4793L1.69764 20.7364C1.51865 20.8429 1.38894 21.0144 1.33625 21.2142C1.28356 21.4141 1.31206 21.6263 1.41567 21.8056L3.56652 25.4863C3.67093 25.6649 3.84235 25.7957 4.04366 25.8503C4.24496 25.9049 4.45992 25.8789 4.64195 25.7779L6.88462 24.5467C6.98488 24.4908 7.09826 24.462 7.21337 24.4631C7.32848 24.4643 7.44126 24.4953 7.54037 24.5532ZM15.5536 22.0324C14.3864 22.0324 13.2453 21.6904 12.2748 21.0495C11.3043 20.4087 10.5478 19.4979 10.1011 18.4322C9.65443 17.3665 9.53756 16.1939 9.76528 15.0625C9.993 13.9312 10.5551 12.8921 11.3805 12.0764C12.2058 11.2608 13.2574 10.7053 14.4023 10.4803C15.5471 10.2553 16.7337 10.3708 17.8121 10.8122C18.8905 11.2536 19.8123 12.0011 20.4607 12.9602C21.1092 13.9193 21.4554 15.0469 21.4554 16.2003C21.4554 17.7471 20.8336 19.2305 19.7268 20.3242C18.62 21.418 17.1189 22.0324 15.5536 22.0324ZM15.5536 11.6643C14.6458 11.6643 13.7583 11.9303 13.0034 12.4287C12.2486 12.9272 11.6602 13.6356 11.3128 14.4645C10.9654 15.2933 10.8745 16.2054 11.0516 17.0853C11.2287 17.9652 11.6659 18.7734 12.3078 19.4078C12.9498 20.0422 13.7677 20.4742 14.6581 20.6492C15.5485 20.8243 16.4715 20.7344 17.3102 20.3911C18.149 20.0478 18.8659 19.4664 19.3703 18.7204C19.8747 17.9745 20.1439 17.0975 20.1439 16.2003C20.1439 14.9973 19.6603 13.8435 18.7994 12.9928C17.9386 12.1422 16.771 11.6643 15.5536 11.6643Z" fill="#2A2554"/>
</svg>
