<svg width="40" height="39" viewBox="0 0 40 39" fill="none" xmlns="http://www.w3.org/2000/svg">
<path d="M23.5517 7.54834C20.4043 7.54834 17.3276 8.47064 14.7106 10.1986C12.0937 11.9266 10.054 14.3826 8.84954 17.2561C7.64508 20.1296 7.32994 23.2916 7.94396 26.3421C8.55799 29.3926 10.0736 32.1946 12.2992 34.3939C14.5247 36.5932 17.3602 38.0909 20.4472 38.6977C23.5341 39.3045 26.7338 38.9931 29.6416 37.8028C32.5494 36.6126 35.0347 34.597 36.7834 32.0109C38.532 29.4248 39.4653 26.3844 39.4653 23.2741C39.4606 19.1048 37.7824 15.1076 34.7991 12.1595C31.8157 9.21132 27.7708 7.553 23.5517 7.54834ZM28.6441 33.9676H18.4594C18.2906 33.9676 18.1287 33.9014 18.0093 33.7834C17.8899 33.6654 17.8229 33.5054 17.8229 33.3386C17.8229 33.1718 17.8899 33.0118 18.0093 32.8938C18.1287 32.7759 18.2906 32.7096 18.4594 32.7096H28.6441C28.8129 32.7096 28.9748 32.7759 29.0942 32.8938C29.2135 33.0118 29.2806 33.1718 29.2806 33.3386C29.2806 33.5054 29.2135 33.6654 29.0942 33.7834C28.9748 33.9014 28.8129 33.9676 28.6441 33.9676ZM30.3958 30.9112C21.9572 25.2568 21.8076 25.109 21.751 25.053C21.2736 24.5812 21.0055 23.9413 21.0055 23.2741C21.0055 22.6069 21.2736 21.9671 21.751 21.4952C22.2357 21.0373 22.8805 20.7818 23.5511 20.7818C24.2217 20.7818 24.8665 21.0373 25.3512 21.4952C25.4072 21.5499 25.5575 21.6984 31.28 30.0375C31.3631 30.1585 31.401 30.3044 31.387 30.4501C31.373 30.5957 31.3081 30.732 31.2034 30.8355C31.0987 30.9389 30.9608 31.0031 30.8134 31.0169C30.666 31.0307 30.5183 30.9933 30.3958 30.9112ZM32.9999 32.6096C32.8799 32.7241 32.7191 32.7875 32.5522 32.7861C32.3853 32.7847 32.2256 32.7185 32.1076 32.6019C31.9896 32.4853 31.9226 32.3275 31.9212 32.1626C31.9197 31.9976 31.9839 31.8387 32.0998 31.7201C33.7923 30.0491 34.9453 27.9195 35.4128 25.6009C35.8804 23.2822 35.6415 20.8786 34.7264 18.6941C33.8114 16.5096 32.2612 14.6424 30.2721 13.3286C28.283 12.0149 25.9442 11.3137 23.5517 11.3137C21.1592 11.3137 18.8205 12.0149 16.8314 13.3286C14.8422 14.6424 13.2921 16.5096 12.377 18.6941C11.462 20.8786 11.2231 23.2822 11.6906 25.6009C12.1582 27.9195 13.3111 30.0491 15.0036 31.7201C15.1196 31.8387 15.1837 31.9976 15.1823 32.1626C15.1808 32.3275 15.1139 32.4853 14.9959 32.6019C14.8778 32.7185 14.7182 32.7847 14.5513 32.7861C14.3844 32.7875 14.2236 32.7241 14.1035 32.6096C12.233 30.7626 10.9587 28.4089 10.442 25.8462C9.92534 23.2834 10.1894 20.6268 11.2008 18.2125C12.2122 15.7981 13.9256 13.7343 16.124 12.2824C18.3225 10.8304 20.9074 10.0554 23.5517 10.0554C26.196 10.0554 28.7809 10.8304 30.9794 12.2824C33.1779 13.7343 34.8912 15.7981 35.9026 18.2125C36.9141 20.6268 37.1781 23.2834 36.6614 25.8462C36.1447 28.4089 34.8705 30.7626 32.9999 32.6096Z" fill="#0756BB" fill-opacity="0.45"/>
<path d="M31.6877 9.04231L26.9773 3.22378C26.7987 3.00253 26.5719 2.82398 26.3138 2.70145C26.0557 2.57891 25.7729 2.51556 25.4865 2.51612H20.3693V1.88709C20.3693 1.3866 20.1681 0.906615 19.81 0.552716C19.4519 0.198818 18.9662 0 18.4597 0H1.90963C1.40316 0 0.91744 0.198818 0.559316 0.552716C0.201192 0.906615 0 1.3866 0 1.88709V17.6129C0 18.1133 0.201192 18.5933 0.559316 18.9472C0.91744 19.3011 1.40316 19.4999 1.90963 19.4999H2.60982C2.75592 20.2109 3.14625 20.8501 3.71469 21.3093C4.28313 21.7684 4.99472 22.0192 5.72888 22.0192C6.46303 22.0192 7.17462 21.7684 7.74306 21.3093C8.3115 20.8501 8.70183 20.2109 8.84793 19.4999H22.3426C22.4887 20.2109 22.879 20.8501 23.4475 21.3093C24.0159 21.7684 24.7275 22.0192 25.4617 22.0192C26.1958 22.0192 26.9074 21.7684 27.4758 21.3093C28.0443 20.8501 28.4346 20.2109 28.5807 19.4999H29.9175C30.4239 19.4999 30.9096 19.3011 31.2678 18.9472C31.6259 18.5933 31.8271 18.1133 31.8271 17.6129V9.43546C31.8272 9.29257 31.778 9.15391 31.6877 9.04231ZM5.72888 20.758C5.35119 20.758 4.98198 20.6473 4.66794 20.44C4.35391 20.2326 4.10915 19.9379 3.96461 19.5931C3.82008 19.2483 3.78226 18.8688 3.85594 18.5028C3.92963 18.1367 4.1115 17.8005 4.37857 17.5365C4.64563 17.2726 4.98589 17.0929 5.35633 17.0201C5.72676 16.9473 6.11072 16.9846 6.45966 17.1275C6.8086 17.2703 7.10684 17.5122 7.31667 17.8225C7.5265 18.1328 7.6385 18.4977 7.6385 18.8709C7.6385 19.3714 7.43731 19.8514 7.07918 20.2053C6.72106 20.5592 6.23534 20.758 5.72888 20.758ZM19.0963 18.2419H8.84793C8.70183 17.5309 8.3115 16.8917 7.74306 16.4326C7.17462 15.9734 6.46303 15.7226 5.72888 15.7226C4.99472 15.7226 4.28313 15.9734 3.71469 16.4326C3.14625 16.8917 2.75592 17.5309 2.60982 18.2419H1.90963C1.7408 18.2419 1.5789 18.1756 1.45952 18.0576C1.34015 17.9397 1.27308 17.7797 1.27308 17.6129V1.88709C1.27308 1.72026 1.34015 1.56027 1.45952 1.4423C1.5789 1.32433 1.7408 1.25806 1.90963 1.25806H18.4597C18.6285 1.25806 18.7904 1.32433 18.9098 1.4423C19.0292 1.56027 19.0963 1.72026 19.0963 1.88709V18.2419ZM25.4617 20.758C25.084 20.758 24.7148 20.6473 24.4007 20.44C24.0867 20.2326 23.8419 19.9379 23.6974 19.5931C23.5529 19.2483 23.5151 18.8688 23.5887 18.5028C23.6624 18.1367 23.8443 17.8005 24.1114 17.5365C24.3784 17.2726 24.7187 17.0929 25.0891 17.0201C25.4595 16.9473 25.8435 16.9846 26.1924 17.1275C26.5414 17.2703 26.8396 17.5122 27.0495 17.8225C27.2593 18.1328 27.3713 18.4977 27.3713 18.8709C27.3713 19.3714 27.1701 19.8514 26.812 20.2053C26.4538 20.5592 25.9681 20.758 25.4617 20.758ZM30.554 17.6129C30.554 17.7797 30.4869 17.9397 30.3676 18.0576C30.2482 18.1756 30.0863 18.2419 29.9175 18.2419H28.5807C28.4346 17.5309 28.0443 16.8917 27.4758 16.4326C26.9074 15.9734 26.1958 15.7226 25.4617 15.7226C24.7275 15.7226 24.0159 15.9734 23.4475 16.4326C22.879 16.8917 22.4887 17.5309 22.3426 18.2419H20.3693V3.77418H25.4865C25.5819 3.77397 25.6761 3.79508 25.7621 3.83592C25.8481 3.87677 25.9236 3.93631 25.983 4.01007L30.554 9.65625V17.6129Z" fill="#2A2554"/>
<path d="M15.9136 5.66113H4.45588C4.28706 5.66113 4.12515 5.72741 4.00577 5.84538C3.8864 5.96335 3.81934 6.12335 3.81934 6.29019C3.81934 6.45702 3.8864 6.61703 4.00577 6.735C4.12515 6.85297 4.28706 6.91924 4.45588 6.91924H15.9136C16.0824 6.91924 16.2443 6.85297 16.3637 6.735C16.4831 6.61703 16.5501 6.45702 16.5501 6.29019C16.5501 6.12335 16.4831 5.96335 16.3637 5.84538C16.2443 5.72741 16.0824 5.66113 15.9136 5.66113Z" fill="#151A6A"/>
<path d="M15.9136 11.9517H4.45588C4.28706 11.9517 4.12515 12.0179 4.00577 12.1359C3.8864 12.2539 3.81934 12.4139 3.81934 12.5807C3.81934 12.7476 3.8864 12.9076 4.00577 13.0255C4.12515 13.1435 4.28706 13.2098 4.45588 13.2098H15.9136C16.0824 13.2098 16.2443 13.1435 16.3637 13.0255C16.4831 12.9076 16.5501 12.7476 16.5501 12.5807C16.5501 12.4139 16.4831 12.2539 16.3637 12.1359C16.2443 12.0179 16.0824 11.9517 15.9136 11.9517Z" fill="#151A6A"/>
<path d="M15.9136 8.80664H4.45588C4.28706 8.80664 4.12515 8.87292 4.00577 8.99089C3.8864 9.10886 3.81934 9.26886 3.81934 9.4357C3.81934 9.60253 3.8864 9.76253 4.00577 9.88051C4.12515 9.99848 4.28706 10.0648 4.45588 10.0648H15.9136C16.0824 10.0648 16.2443 9.99848 16.3637 9.88051C16.4831 9.76253 16.5501 9.60253 16.5501 9.4357C16.5501 9.26886 16.4831 9.10886 16.3637 8.99089C16.2443 8.87292 16.0824 8.80664 15.9136 8.80664Z" fill="#151A6A"/>
</svg>
