<svg width="41" height="39" viewBox="0 0 41 39" fill="none" xmlns="http://www.w3.org/2000/svg">
<path d="M38.101 7.37842H19.872C19.3541 7.37842 18.8573 7.57831 18.491 7.93412C18.1247 8.28994 17.9189 8.77252 17.9189 9.27572V37.1027C17.9189 37.6059 18.1247 38.0885 18.491 38.4443C18.8573 38.8001 19.3541 39 19.872 39H38.101C38.619 39 39.1158 38.8001 39.482 38.4443C39.8483 38.0885 40.0541 37.6059 40.0541 37.1027V9.27572C40.0541 8.77252 39.8483 8.28994 39.482 7.93412C39.1158 7.57831 38.619 7.37842 38.101 7.37842ZM28.9865 37.1027C28.729 37.1027 28.4772 37.0286 28.2631 36.8896C28.049 36.7506 27.8821 36.553 27.7836 36.3219C27.685 36.0908 27.6592 35.8365 27.7095 35.5911C27.7597 35.3458 27.8837 35.1204 28.0658 34.9435C28.2479 34.7666 28.4799 34.6461 28.7325 34.5973C28.9851 34.5485 29.2469 34.5736 29.4848 34.6693C29.7227 34.765 29.9261 34.9272 30.0691 35.1352C30.2122 35.3432 30.2886 35.5877 30.2886 35.8379C30.2886 36.1733 30.1514 36.4951 29.9072 36.7323C29.663 36.9695 29.3318 37.1027 28.9865 37.1027ZM37.4499 32.0433C37.4499 32.211 37.3814 32.3719 37.2593 32.4905C37.1372 32.6091 36.9716 32.6757 36.7989 32.6757H21.1741C21.0014 32.6757 20.8359 32.6091 20.7138 32.4905C20.5917 32.3719 20.5231 32.211 20.5231 32.0433V10.5406C20.5231 10.3728 20.5917 10.212 20.7138 10.0934C20.8359 9.97478 21.0014 9.90815 21.1741 9.90815H36.7989C36.9716 9.90815 37.1372 9.97478 37.2593 10.0934C37.3814 10.212 37.4499 10.3728 37.4499 10.5406V32.0433Z" fill="#0756BB" fill-opacity="0.45"/>
<path d="M28.9863 12.6484C27.4492 12.6501 25.9757 13.2575 24.8888 14.3372C23.802 15.417 23.1907 16.881 23.189 18.408C23.189 23.6914 28.2674 30.0551 28.4832 30.3271C28.5435 30.402 28.6201 30.4626 28.7072 30.5042C28.7942 30.5458 28.8896 30.5674 28.9863 30.5674C29.0829 30.5674 29.1783 30.5458 29.2654 30.5042C29.3524 30.4626 29.429 30.402 29.4893 30.3271C29.7051 30.0583 34.7836 23.6914 34.7836 18.408C34.7819 16.881 34.1705 15.417 33.0837 14.3372C31.9969 13.2575 30.5233 12.6501 28.9863 12.6484ZM28.9863 20.9678C28.4767 20.9678 27.9785 20.8177 27.5548 20.5364C27.1311 20.2551 26.8008 19.8553 26.6058 19.3876C26.4108 18.9198 26.3598 18.4052 26.4592 17.9086C26.5586 17.412 26.804 16.9559 27.1643 16.5979C27.5247 16.2399 27.9838 15.9961 28.4836 15.8974C28.9834 15.7986 29.5015 15.8493 29.9723 16.043C30.4431 16.2368 30.8455 16.5649 31.1286 16.9858C31.4117 17.4068 31.5628 17.9017 31.5628 18.408C31.5628 19.0869 31.2914 19.738 30.8082 20.218C30.325 20.6981 29.6696 20.9678 28.9863 20.9678Z" fill="#0756BB" fill-opacity="0.45"/>
<path d="M28.6164 1.86263H22.7631V0.637887C22.7631 0.468709 22.6946 0.30646 22.5726 0.186833C22.4506 0.0672058 22.2852 0 22.1127 0C21.9402 0 21.7748 0.0672058 21.6528 0.186833C21.5309 0.30646 21.4623 0.468709 21.4623 0.637887V1.86263H15.9342V0.637887C15.9342 0.468709 15.8656 0.30646 15.7437 0.186833C15.6217 0.0672058 15.4563 0 15.2838 0C15.1113 0 14.9459 0.0672058 14.8239 0.186833C14.7019 0.30646 14.6334 0.468709 14.6334 0.637887V1.86263H9.10523V0.637887C9.10523 0.468709 9.03671 0.30646 8.91474 0.186833C8.79277 0.0672058 8.62735 0 8.45486 0C8.28237 0 8.11694 0.0672058 7.99498 0.186833C7.87301 0.30646 7.80449 0.468709 7.80449 0.637887V1.86263H1.95112C1.43365 1.86263 0.937376 2.06425 0.57147 2.42313C0.205564 2.78201 0 3.26876 0 3.77629C0 3.85156 0 25.6597 0 25.592C0.00412483 25.6966 0.0330138 25.7987 0.0843777 25.8904C0.135742 25.9821 0.208169 26.0608 0.29592 26.1202L7.11834 30.4661C7.22498 30.5281 7.34569 30.563 7.46954 30.5676H28.6164C29.1339 30.5676 29.6302 30.366 29.9961 30.0071C30.362 29.6482 30.5676 29.1614 30.5676 28.6539V3.77629C30.5676 3.26876 30.362 2.78201 29.9961 2.42313C29.6302 2.06425 29.1339 1.86263 28.6164 1.86263ZM2.009 25.689L4.36856 24.6588L5.98344 28.2221L2.009 25.689ZM29.2668 28.6539C29.2668 28.8231 29.1983 28.9853 29.0763 29.105C28.9544 29.2246 28.7889 29.2918 28.6164 29.2918H7.89489L5.29339 23.5578C5.22326 23.4033 5.09342 23.2824 4.93242 23.2218C4.77143 23.1611 4.59247 23.1657 4.4349 23.2344L1.30075 24.602V3.77629C1.30075 3.60712 1.36927 3.44487 1.49124 3.32524C1.61321 3.20561 1.77863 3.13841 1.95112 3.13841H7.80449V4.41418C7.80449 4.58336 7.87301 4.74561 7.99498 4.86524C8.11694 4.98486 8.28237 5.05207 8.45486 5.05207C8.62735 5.05207 8.79277 4.98486 8.91474 4.86524C9.03671 4.74561 9.10523 4.58336 9.10523 4.41418V3.13841H14.6334V4.41418C14.6334 4.58336 14.7019 4.74561 14.8239 4.86524C14.9459 4.98486 15.1113 5.05207 15.2838 5.05207C15.4563 5.05207 15.6217 4.98486 15.7437 4.86524C15.8656 4.74561 15.9342 4.58336 15.9342 4.41418V3.13841H21.4623V4.41418C21.4623 4.58336 21.5309 4.74561 21.6528 4.86524C21.7748 4.98486 21.9402 5.05207 22.1127 5.05207C22.2852 5.05207 22.4506 4.98486 22.5726 4.86524C22.6946 4.74561 22.7631 4.58336 22.7631 4.41418V3.13841H28.6164C28.7889 3.13841 28.9544 3.20561 29.0763 3.32524C29.1983 3.44487 29.2668 3.60712 29.2668 3.77629V28.6539Z" fill="#2A2554"/>
<path d="M25.6807 8.43262H4.88707C4.70917 8.43262 4.53856 8.54367 4.41277 8.74134C4.28698 8.93902 4.21631 9.20712 4.21631 9.48667C4.21631 9.76622 4.28698 10.0343 4.41277 10.232C4.53856 10.4297 4.70917 10.5407 4.88707 10.5407H25.6807C25.8586 10.5407 26.0292 10.4297 26.155 10.232C26.2808 10.0343 26.3514 9.76622 26.3514 9.48667C26.3514 9.20712 26.2808 8.93902 26.155 8.74134C26.0292 8.54367 25.8586 8.43262 25.6807 8.43262Z" fill="#2A2554"/>
<path d="M25.6807 13.7026H4.88707C4.70917 13.7026 4.53856 13.7582 4.41277 13.857C4.28698 13.9558 4.21631 14.0899 4.21631 14.2297C4.21631 14.3694 4.28698 14.5035 4.41277 14.6023C4.53856 14.7012 4.70917 14.7567 4.88707 14.7567H25.6807C25.8586 14.7567 26.0292 14.7012 26.155 14.6023C26.2808 14.5035 26.3514 14.3694 26.3514 14.2297C26.3514 14.0899 26.2808 13.9558 26.155 13.857C26.0292 13.7582 25.8586 13.7026 25.6807 13.7026Z" fill="#2A2554"/>
<path d="M25.6807 18.9731H4.88707C4.70917 18.9731 4.53856 19.0287 4.41277 19.1275C4.28698 19.2263 4.21631 19.3604 4.21631 19.5002C4.21631 19.6399 4.28698 19.774 4.41277 19.8728C4.53856 19.9717 4.70917 20.0272 4.88707 20.0272H25.6807C25.8586 20.0272 26.0292 19.9717 26.155 19.8728C26.2808 19.774 26.3514 19.6399 26.3514 19.5002C26.3514 19.3604 26.2808 19.2263 26.155 19.1275C26.0292 19.0287 25.8586 18.9731 25.6807 18.9731Z" fill="#2A2554"/>
<path d="M25.6926 24.2432H11.1993C11.0246 24.2432 10.857 24.2987 10.7335 24.3975C10.6099 24.4964 10.5405 24.6304 10.5405 24.7702C10.5405 24.91 10.6099 25.044 10.7335 25.1429C10.857 25.2417 11.0246 25.2972 11.1993 25.2972H25.6926C25.8673 25.2972 26.0348 25.2417 26.1584 25.1429C26.2819 25.044 26.3513 24.91 26.3513 24.7702C26.3513 24.6304 26.2819 24.4964 26.1584 24.3975C26.0348 24.2987 25.8673 24.2432 25.6926 24.2432Z" fill="#2A2554"/>
</svg>
