<svg width="41" height="40" viewBox="0 0 41 40" fill="none" xmlns="http://www.w3.org/2000/svg">
<path d="M35.9089 18.6688H26.4357L29.5173 15.3913C29.995 14.8944 30.3259 14.2776 30.4742 13.608C30.6226 12.9384 30.5825 12.2414 30.3586 11.5927C30.1346 10.944 29.7351 10.3682 29.2036 9.92778C28.6721 9.48739 28.0287 9.19918 27.3432 9.0944C26.6453 8.96492 25.9251 9.02093 25.2564 9.25672C24.5876 9.4925 23.9942 9.8996 23.5369 10.4364L16.7992 18.3269C16.565 18.5316 16.3772 18.7828 16.2478 19.064C16.1185 19.3453 16.0505 19.6503 16.0483 19.9592V39.3532C16.0483 39.5243 16.1171 39.6884 16.2396 39.8094C16.362 39.9304 16.5281 39.9984 16.7012 39.9984H33.2974C35.1741 40.0208 36.9833 39.3077 38.3292 38.0152C39.6752 36.7226 40.4482 34.9558 40.4791 33.1014V23.0625C40.4602 21.8817 39.9687 20.7565 39.1122 19.933C38.2556 19.1096 37.1038 18.655 35.9089 18.6688Z" fill="#0756BB" fill-opacity="0.45"/>
<path d="M13.9655 18.6687H11.5629C10.6057 18.6392 9.6757 18.9859 8.97684 19.633C8.27798 20.2801 7.86734 21.1746 7.83496 22.1204V36.5466C7.86734 37.4924 8.27798 38.3869 8.97684 39.034C9.6757 39.6811 10.6057 40.0278 11.5629 39.9983H13.9655C14.1387 39.9983 14.3048 39.9303 14.4272 39.8093C14.5496 39.6883 14.6184 39.5242 14.6184 39.3531V19.301C14.615 19.1321 14.5447 18.9713 14.4226 18.8531C14.3006 18.7349 14.1365 18.6687 13.9655 18.6687Z" fill="#0756BB" fill-opacity="0.45"/>
<path d="M23.6936 0.190848C23.6936 0.190848 20.8928 2.9651 18.2813 2.9651C15.6697 2.9651 12.9015 0.216655 12.8689 0.190848C12.8082 0.130377 12.736 0.0823792 12.6564 0.0496245C12.5768 0.0168697 12.4915 5.96614e-06 12.4053 5.96614e-06C12.3191 5.96614e-06 12.2338 0.0168697 12.1542 0.0496245C12.0747 0.0823792 12.0025 0.130377 11.9418 0.190848C11.9091 0.216655 9.14091 2.9651 6.52938 2.9651C3.91785 2.9651 1.14963 0.216655 1.11699 0.190848C1.02606 0.100251 0.909988 0.0383331 0.783451 0.0129227C0.656914 -0.0124877 0.525593 -0.000248946 0.406095 0.0480912C0.286596 0.0964314 0.184286 0.178702 0.112102 0.2845C0.0399172 0.390299 0.00110011 0.514873 0.000558724 0.642471V19.7397C-0.0307851 23.0241 1.25776 26.1866 3.5834 28.5331C5.90904 30.8797 9.08178 32.2186 12.4053 32.2561C15.7289 32.2186 18.9016 30.8797 21.2272 28.5331C23.5529 26.1866 24.8414 23.0241 24.8101 19.7397V0.642471C24.8095 0.514873 24.7707 0.390299 24.6985 0.2845C24.6263 0.178702 24.524 0.0964314 24.4045 0.0480912C24.285 -0.000248946 24.1537 -0.0124877 24.0272 0.0129227C23.9006 0.0383331 23.7846 0.100251 23.6936 0.190848ZM23.5043 19.7397C23.5357 22.6818 22.3847 25.5162 20.3039 27.6207C18.2232 29.7253 15.3825 30.9283 12.4053 30.9657C9.42809 30.9283 6.58746 29.7253 4.50669 27.6207C2.42593 25.5162 1.27496 22.6818 1.30632 19.7397V2.06831C2.49457 2.99736 4.48586 4.25546 6.52938 4.25546C9.01686 4.25546 11.4195 2.39735 12.4053 1.52636C13.3912 2.39735 15.7938 4.25546 18.2813 4.25546C20.3248 4.25546 22.3161 2.99736 23.5043 2.06831V19.7397Z" fill="#2A2554"/>
<path d="M3.26514 7.31998V19.5138C3.26514 21.9094 4.22813 24.2068 5.94228 25.9007C7.65642 27.5946 9.98131 28.5463 12.4055 28.5463C14.8296 28.5463 17.1545 27.5946 18.8687 25.9007C20.5828 24.2068 21.5458 21.9094 21.5458 19.5138V7.31998C21.5458 7.14887 21.477 6.98477 21.3546 6.86377C21.2321 6.74278 21.0661 6.6748 20.8929 6.6748H3.91802C3.74486 6.6748 3.5788 6.74278 3.45636 6.86377C3.33392 6.98477 3.26514 7.14887 3.26514 7.31998ZM4.5709 7.96516H20.24V19.5138C20.24 21.5671 19.4146 23.5364 17.9454 24.9883C16.4761 26.4402 14.4833 27.2559 12.4055 27.2559C10.3276 27.2559 8.33486 26.4402 6.86559 24.9883C5.39633 23.5364 4.5709 21.5671 4.5709 19.5138V7.96516Z" fill="#2A2554"/>
<path d="M11.3671 21.5847L18.1244 14.9072C18.1852 14.847 18.2335 14.7756 18.2665 14.697C18.2994 14.6184 18.3164 14.5342 18.3164 14.4491C18.3164 14.364 18.2994 14.2798 18.2665 14.2012C18.2335 14.1226 18.1852 14.0512 18.1244 13.991C18.0635 13.9309 17.9912 13.8831 17.9117 13.8506C17.8322 13.818 17.7469 13.8013 17.6608 13.8013C17.5747 13.8013 17.4895 13.818 17.41 13.8506C17.3304 13.8831 17.2582 13.9309 17.1973 13.991L10.9035 20.217L7.63912 16.9588C7.57824 16.8987 7.50598 16.8509 7.42644 16.8184C7.3469 16.7858 7.26166 16.7691 7.17557 16.7691C7.08948 16.7691 7.00424 16.7858 6.9247 16.8184C6.84517 16.8509 6.7729 16.8987 6.71203 16.9588C6.65115 17.019 6.60287 17.0904 6.56992 17.169C6.53698 17.2476 6.52002 17.3318 6.52002 17.4169C6.52002 17.502 6.53698 17.5862 6.56992 17.6648C6.60287 17.7434 6.65115 17.8148 6.71203 17.875L10.4465 21.5847C10.5688 21.7049 10.7343 21.7723 10.9068 21.7723C11.0793 21.7723 11.2447 21.7049 11.3671 21.5847Z" fill="#2A2554"/>
</svg>
