<svg width="24" height="19" viewBox="0 0 24 19" fill="none" xmlns="http://www.w3.org/2000/svg">
<path d="M24.0002 9.49436C24.0005 9.36165 23.948 9.2343 23.8542 9.14036L14.8542 0.140361C14.6556 -0.0514981 14.3391 -0.0459668 14.1472 0.152643C13.9601 0.346424 13.9601 0.653595 14.1472 0.84733L22.7932 9.49431L14.1472 18.1403C13.9553 18.3389 13.9609 18.6555 14.1595 18.8473C14.3533 19.0345 14.6604 19.0345 14.8542 18.8473L23.8542 9.84733C23.9477 9.75367 24.0002 9.62673 24.0002 9.49436Z" fill="white"/>
<path d="M24 9.49416C24 9.21802 23.7761 8.99414 23.5 8.99414L0.500016 8.99414C0.223875 8.99419 9.78597e-09 9.21802 2.18566e-08 9.49416C3.39272e-08 9.7703 0.223875 9.99418 0.500016 9.99418L23.5 9.99418C23.7761 9.99418 24 9.7703 24 9.49416Z" fill="white"/>
</svg>
