<svg width="22" height="16" viewBox="0 0 22 16" fill="none" xmlns="http://www.w3.org/2000/svg">
<path d="M19.3333 0H2.00001C0.897137 0 0 0.897137 0 2.00001V14C0 15.1029 0.897137 16 2.00001 16H19.3333C20.4362 16 21.3333 15.1029 21.3333 14V2.00001C21.3333 0.897137 20.4362 0 19.3333 0ZM19.3333 1.33333C19.4239 1.33333 19.51 1.35212 19.5888 1.38494L10.6667 9.11784L1.74444 1.38494C1.82322 1.35216 1.90939 1.33333 1.99997 1.33333H19.3333ZM19.3333 14.6666H2.00001C1.63218 14.6666 1.33333 14.3678 1.33333 13.9999V2.79361L10.2298 10.5039C10.3555 10.6126 10.5111 10.6667 10.6667 10.6667C10.8222 10.6667 10.9778 10.6126 11.1035 10.5039L20 2.79361V14C19.9999 14.3678 19.7011 14.6666 19.3333 14.6666Z" fill="#0756BB"/>
</svg>
