<svg width="17" height="20" viewBox="0 0 17 20" fill="none" xmlns="http://www.w3.org/2000/svg">
<path d="M4.03255 12.8671C4.03255 12.535 3.80208 12.3369 3.39543 12.3369C3.22938 12.3369 3.11693 12.3533 3.05811 12.369V13.4346C3.12775 13.4503 3.21337 13.4556 3.33139 13.4556C3.76483 13.4556 4.03255 13.2366 4.03255 12.8671Z" fill="#0756BB"/>
<path d="M6.55006 12.3486C6.36795 12.3486 6.25027 12.3644 6.18066 12.3807V14.7408C6.25031 14.7572 6.36277 14.7572 6.46444 14.7572C7.20319 14.7624 7.685 14.3557 7.685 13.4941C7.69023 12.7448 7.25119 12.3486 6.55006 12.3486Z" fill="#0756BB"/>
<path d="M11.2271 0H3.19431C2.02079 0 1.06567 0.955782 1.06567 2.12864V9.99998H0.857761C0.384122 9.99998 0 10.3837 0 10.8578V16.0598C0 16.5338 0.38408 16.9175 0.857761 16.9175H1.06567V17.8714C1.06567 19.0455 2.02079 20 3.19431 20H14.1548C15.3275 20 16.2828 19.0455 16.2828 17.8714V5.03792L11.2271 0ZM2.25026 11.7966C2.50164 11.7541 2.85499 11.7221 3.35281 11.7221C3.8559 11.7221 4.21447 11.8181 4.4554 12.011C4.68554 12.1927 4.84084 12.4928 4.84084 12.8459C4.84084 13.1989 4.72316 13.499 4.50903 13.7023C4.23052 13.9645 3.81865 14.0822 3.33684 14.0822C3.22961 14.0822 3.13349 14.0769 3.05833 14.0664V15.3564H2.25026V11.7966ZM14.1548 18.6964H3.19431C2.73992 18.6964 2.3699 18.3264 2.3699 17.8714V16.9175H12.5873C13.061 16.9175 13.4451 16.5338 13.4451 16.0598V10.8578C13.4451 10.3837 13.061 9.99998 12.5873 9.99998H2.3699V2.12864C2.3699 1.67491 2.73996 1.30489 3.19431 1.30489L10.7394 1.29701V4.08596C10.7394 4.90058 11.4004 5.56217 12.2156 5.56217L14.9477 5.55433L14.9785 17.8713C14.9785 18.3264 14.6091 18.6964 14.1548 18.6964ZM5.3619 15.34V11.7966C5.6616 11.7489 6.05224 11.7221 6.46448 11.7221C7.1496 11.7221 7.59387 11.845 7.94198 12.1071C8.31661 12.3856 8.55193 12.8295 8.55193 13.4669C8.55193 14.1573 8.30055 14.6339 7.9524 14.9281C7.57255 15.2438 6.99433 15.3936 6.28794 15.3936C5.86491 15.3936 5.5652 15.3668 5.3619 15.34ZM11.2037 13.2421V13.9056H9.90818V15.3564H9.08933V11.7489H11.2945V12.4176H9.90818V13.2421H11.2037Z" fill="#0756BB"/>
</svg>
