<svg width="20" height="20" viewBox="0 0 20 20" fill="none" xmlns="http://www.w3.org/2000/svg">
<path d="M16.7613 11.922C16.3267 11.4695 15.8025 11.2276 15.2469 11.2276C14.6958 11.2276 14.1672 11.4651 13.7147 11.9176L12.2989 13.3289C12.1824 13.2661 12.0659 13.2079 11.9539 13.1496C11.7926 13.069 11.6403 12.9928 11.5104 12.9122C10.1842 12.0699 8.979 10.9722 7.82309 9.55197C7.26305 8.84409 6.88671 8.24821 6.61341 7.64337C6.98079 7.30735 7.3213 6.95788 7.65284 6.62186C7.77829 6.49642 7.90373 6.36649 8.02918 6.24104C8.97004 5.30018 8.97004 4.08154 8.02918 3.14068L6.80606 1.91756C6.66717 1.77867 6.52381 1.6353 6.3894 1.49194C6.12058 1.21416 5.83832 0.927419 5.5471 0.658602C5.11252 0.228495 4.5928 0 4.04621 0C3.49962 0 2.97094 0.228495 2.52291 0.658602C2.51843 0.663082 2.51843 0.663082 2.51395 0.667563L0.990657 2.2043C0.417181 2.77778 0.0901202 3.4767 0.0184357 4.28763C-0.0890911 5.59588 0.296213 6.81452 0.591912 7.61201C1.31772 9.56989 2.40195 11.3844 4.01933 13.3289C5.98169 15.672 8.3428 17.5224 11.0399 18.8262C12.0704 19.3145 13.4458 19.8925 14.9826 19.991C15.0767 19.9955 15.1752 20 15.2648 20C16.2998 20 17.169 19.6281 17.85 18.8889C17.8544 18.8799 17.8634 18.8754 17.8679 18.8665C18.1009 18.5842 18.3697 18.3289 18.6519 18.0556C18.8446 17.8719 19.0417 17.6792 19.2344 17.4776C19.6779 17.0161 19.9109 16.4785 19.9109 15.9274C19.9109 15.3719 19.6734 14.8387 19.2209 14.3907L16.7613 11.922ZM18.3652 16.6398C18.3607 16.6398 18.3607 16.6443 18.3652 16.6398C18.1905 16.828 18.0113 16.9982 17.8186 17.1864C17.5274 17.4642 17.2317 17.7554 16.9539 18.0824C16.5014 18.5663 15.9682 18.7948 15.2693 18.7948C15.2021 18.7948 15.1304 18.7948 15.0632 18.7903C13.7326 18.7052 12.496 18.1855 11.5686 17.7419C9.03276 16.5143 6.80606 14.7715 4.95571 12.5627C3.42793 10.7213 2.40643 9.01882 1.7299 7.19086C1.31324 6.07527 1.16091 5.20609 1.22811 4.3862C1.27291 3.86201 1.47453 3.42742 1.84639 3.05556L3.37417 1.52778C3.5937 1.32168 3.82668 1.20968 4.05517 1.20968C4.33743 1.20968 4.56592 1.37993 4.70929 1.5233C4.71377 1.52778 4.71825 1.53226 4.72273 1.53674C4.99603 1.79211 5.25589 2.05645 5.52918 2.33871C5.66807 2.48208 5.81144 2.62545 5.95481 2.7733L7.17793 3.99642C7.65284 4.47133 7.65284 4.91039 7.17793 5.3853C7.048 5.51523 6.92255 5.64516 6.79262 5.77061C6.41628 6.15591 6.05786 6.51434 5.66807 6.8638C5.65911 6.87276 5.65015 6.87724 5.64567 6.8862C5.26037 7.27151 5.33205 7.64785 5.4127 7.90323C5.41718 7.91667 5.42166 7.93011 5.42614 7.94355C5.74424 8.71416 6.19227 9.43996 6.87327 10.3047L6.87775 10.3091C8.11431 11.8324 9.41807 13.0197 10.8562 13.9292C11.0399 14.0457 11.2281 14.1398 11.4073 14.2294C11.5686 14.31 11.7209 14.3862 11.8509 14.4668C11.8688 14.4758 11.8867 14.4892 11.9046 14.4982C12.057 14.5744 12.2003 14.6102 12.3482 14.6102C12.72 14.6102 12.953 14.3772 13.0292 14.3011L14.5614 12.7688C14.7138 12.6165 14.9557 12.4328 15.238 12.4328C15.5157 12.4328 15.7442 12.6075 15.8831 12.7599C15.8876 12.7643 15.8876 12.7643 15.8921 12.7688L18.3607 15.2375C18.8222 15.6944 18.8222 16.1649 18.3652 16.6398Z" fill="#0756BB"/>
</svg>
